<?xml version="1.0" standalone="no"?>
<!DOCTYPE svg PUBLIC "-//W3C//DTD SVG 1.1//EN" "http://www.w3.org/Graphics/SVG/1.1/DTD/svg11.dtd" >
<svg xmlns="http://www.w3.org/2000/svg">
<metadata></metadata>
<defs>
<font id="brasil_14regular" horiz-adv-x="1220" >
<font-face units-per-em="2048" ascent="1638" descent="-410" />
<missing-glyph horiz-adv-x="500" />
<glyph unicode="&#xd;" horiz-adv-x="508" />
<glyph horiz-adv-x="0" />
<glyph horiz-adv-x="0" />
<glyph unicode=" "  horiz-adv-x="500" />
<glyph unicode="&#x09;" horiz-adv-x="500" />
<glyph unicode="&#xa0;" horiz-adv-x="500" />
<glyph unicode="!" horiz-adv-x="672" d="M207 136q0 15 16 31l82 84q15 14 29 14q13 0 31 -16l80 -86q12 -16 12 -29q0 -15 -14 -31l-80 -88q-20 -20 -29 -20q-16 0 -29 14l-88 101q-10 13 -10 26zM264 1364q0 46 21 69t62 23q42 0 62.5 -23t20.5 -69l-80 -1036h-37z" />
<glyph unicode="&#x22;" d="M98 0v1434h1024v-1434h-1024zM147 49h926v1336h-926v-1336z" />
<glyph unicode="#" d="M98 0v1434h1024v-1434h-1024zM147 49h926v1336h-926v-1336z" />
<glyph unicode="$" d="M98 0v1434h1024v-1434h-1024zM147 49h926v1336h-926v-1336z" />
<glyph unicode="%" d="M98 0v1434h1024v-1434h-1024zM147 49h926v1336h-926v-1336z" />
<glyph unicode="&#x26;" d="M98 0v1434h1024v-1434h-1024zM147 49h926v1336h-926v-1336z" />
<glyph unicode="'" d="M98 0v1434h1024v-1434h-1024zM147 49h926v1336h-926v-1336z" />
<glyph unicode="(" d="M98 0v1434h1024v-1434h-1024zM147 49h926v1336h-926v-1336z" />
<glyph unicode=")" d="M98 0v1434h1024v-1434h-1024zM147 49h926v1336h-926v-1336z" />
<glyph unicode="*" d="M98 0v1434h1024v-1434h-1024zM147 49h926v1336h-926v-1336z" />
<glyph unicode="+" d="M98 0v1434h1024v-1434h-1024zM147 49h926v1336h-926v-1336z" />
<glyph unicode="," horiz-adv-x="557" d="M119 91v42l119 125q44 0 88.5 -65.5t44.5 -151.5q0 -109 -71 -226.5t-139 -117.5v43q73 43 87 190q0 119 -129 161z" />
<glyph unicode="-" horiz-adv-x="670" d="M116 437v83q0 29 41 29h356q41 0 41 -29v-83q0 -28 -40 -28h-358q-40 0 -40 28z" />
<glyph unicode="." horiz-adv-x="557" d="M129 136q0 15 16 31l82 84q15 14 29 14q13 0 31 -16l80 -86q12 -16 12 -29q0 -15 -14 -31l-80 -88q-20 -20 -29 -20q-16 0 -29 14l-88 101q-10 13 -10 26z" />
<glyph unicode="/" horiz-adv-x="569" d="M13 -50l541 1484h80l-541 -1484h-80z" />
<glyph unicode="0" horiz-adv-x="1001" d="M41 895l2 74q0 8 2 23.5t13.5 57.5t31 80.5t60 86t95 81t141.5 57t194 23.5q145 0 227 -61q154 -119 154 -459q0 -131 -21.5 -282.5t-44.5 -235.5l-23 -86q-2 -10 -8 -26.5t-30.5 -59.5t-57.5 -77t-92 -60.5t-131 -26.5q-96 0 -176 39t-132 98.5t-91 144.5t-59.5 164.5 t-34 172t-16.5 153t-3 119.5zM373 549q0 -53 45 -95t96 -42q55 0 95 50t40 111q0 54 -37 93t-84 39q-57 0 -106 -49.5t-49 -106.5z" />
<glyph unicode="1" horiz-adv-x="680" d="M10 1223q0 34 19 61q28 43 85.5 64.5t99.5 24.5t118 3q133 0 192 -20q11 -4 19 -27q18 -78 46.5 -336t28.5 -485q0 -367 -88 -481q-18 -23 -71 -23q-94 0 -131 19q-127 55 -127 555q0 110 6 232t14 189l6 66q-2 4 -4 9t-16 19.5t-34.5 27t-60.5 26.5t-92 20 q-10 25 -10 56z" />
<glyph unicode="2" horiz-adv-x="1053" d="M10 1196q0 68 17 94q49 82 307 82q579 0 579 -354q0 -96 -51 -213q-65 -146 -127.5 -263.5t-91.5 -162.5l-31 -45q142 22 363 22h67q-4 -55 -47 -169.5t-102 -129.5q-219 -53 -531 -53q-10 0 -28.5 3t-65.5 15.5t-82.5 30t-65.5 52t-30 79.5q0 54 20.5 107t96.5 190 q98 174 185 292t120 155t33 55q0 64 -236 64q-215 0 -266 -21q-33 59 -33 170z" />
<glyph unicode="3" horiz-adv-x="1092" d="M10 1110q2 37 23.5 95.5t46.5 90.5q59 78 266 78q272 0 402.5 -91t130.5 -239q0 -90 -52.5 -174t-146.5 -139q188 -33 279.5 -105.5t91.5 -219.5q0 -95 -52.5 -168.5t-129 -115.5t-177 -69.5t-186.5 -38t-164 -10.5q-113 0 -113 53q0 9 2 13q150 118 261.5 230t111.5 142 q0 29 -84 37q-4 0 -24.5 3t-40 5t-49 6.5t-55 10.5t-55.5 12t-53.5 15.5t-43 19.5t-29.5 22.5t-10 26.5q28 29 131.5 94.5t176.5 135t73 145.5q0 139 -371 139q-78 0 -160 -4z" />
<glyph unicode="4" horiz-adv-x="1083" d="M10 571q0 234 203 486q250 305 473 319h10q19 -14 46.5 -36.5t76.5 -83t58 -105.5q8 -35 13 -152.5t7 -218.5l2 -100q47 -8 82 -37t51.5 -62.5t26.5 -66.5t12 -55l2 -21l-194 -26l-2 -23q-37 -287 -89 -366q-30 -19 -71 -19q-53 0 -95 10.5t-57 18.5l-16 6q-2 10 -7 24.5 t-10.5 33t-13.5 88t-14 182.5q-260 6 -412 59q-82 27 -82 145zM367 762q0 -60 38.5 -91.5t94.5 -31.5q61 0 113.5 39t52.5 102q0 58 -50.5 96.5t-111.5 38.5q-60 0 -98.5 -38.5t-38.5 -114.5z" />
<glyph unicode="5" horiz-adv-x="1063" d="M10 1223l6 114q54 4 150 12.5t176 14.5t145 6q103 0 179.5 -20.5t116.5 -47t67 -67.5t33 -68.5t10 -62.5t4 -39q-238 31 -395 31q-76 0 -104.5 -9.5t-28.5 -35.5l2 -41q51 -13 107.5 -31t161.5 -65.5t183 -102.5t138.5 -144t60.5 -188q0 -82 -35 -168q-37 -88 -93 -149.5 t-105.5 -91t-119 -46t-104.5 -18.5t-92 -2q-51 0 -174 26.5t-162 67.5q-24 29 -24 56q0 90 178 213q80 -15 143 -15q166 0 166 82q-4 45 -53 98.5t-118 96.5t-136.5 79.5t-114.5 57.5l-47 20q-20 35 -44 87.5t-50.5 153.5t-26.5 196z" />
<glyph unicode="6" horiz-adv-x="1067" d="M18 653q0 258 121 480q117 157 324 217q59 20 133 20q72 0 135 -29v-4q-301 -288 -321 -403h4q41 4 65 4h51q215 0 361 -113q156 -159 156 -356q0 -240 -324 -426q-96 -43 -172 -43h-39q-305 0 -442 332q-52 145 -52 321zM387 520q33 -129 152 -129q120 0 153 133v21 q0 80 -104 117q-17 8 -45 8h-8q-111 0 -148 -113v-37z" />
<glyph unicode="7" horiz-adv-x="1014" d="M43 1212v31q0 105 92 129h828q8 -2 8 -8q-373 -1262 -391 -1309q-45 -55 -109 -55h-20q-111 0 -177 121l-4 22v29l242 848q-289 -4 -377 -8q-67 0 -92 200z" />
<glyph unicode="8" horiz-adv-x="1014" d="M37 410q0 213 160 368q-101 133 -111 248q0 221 250 320q39 20 110 20h91q417 -92 417 -420q0 -139 -149 -289v-10q178 -80 178 -278v-29q0 -229 -397 -340h-129q-320 0 -410 289zM385 907q0 -100 160 -129q92 0 121 160q0 109 -170 129q-111 -35 -111 -121v-39zM406 399 q24 -120 120 -120h39q103 0 119 141v29q0 110 -147 129q-131 -23 -131 -129v-50z" />
<glyph unicode="9" horiz-adv-x="977" d="M18 918q0 288 252 393q172 71 297 71h29q188 0 311 -200q49 -95 49 -264v-72q0 -490 -264 -737q-117 -97 -254 -97h-55l-8 4q149 279 149 371q-209 29 -282 82q-123 66 -183 231q-41 107 -41 218zM383 868q0 -57 88 -102q27 -12 57 -12h15q106 0 145 110v41q0 56 -80 105 q-30 14 -73 18q-99 0 -144 -98q-8 -17 -8 -33v-29z" />
<glyph unicode=":" d="M98 0v1434h1024v-1434h-1024zM147 49h926v1336h-926v-1336z" />
<glyph unicode=";" d="M98 0v1434h1024v-1434h-1024zM147 49h926v1336h-926v-1336z" />
<glyph unicode="&#x3c;" d="M98 0v1434h1024v-1434h-1024zM147 49h926v1336h-926v-1336z" />
<glyph unicode="=" horiz-adv-x="1014" d="M87 491v140h840v-140h-840zM87 803v140h840v-140h-840z" />
<glyph unicode="&#x3e;" d="M98 0v1434h1024v-1434h-1024zM147 49h926v1336h-926v-1336z" />
<glyph unicode="?" horiz-adv-x="748" d="M132 1266v64q128 104 242 104q132 0 212 -68t80 -182q0 -69 -32.5 -140t-124.5 -186q-90 -113 -141.5 -187.5t-51.5 -142.5q0 -63 35 -189h-47q-50 138 -50 211q0 109 116.5 312t116.5 309q0 82 -47 129t-130 47q-84 0 -178 -81zM207 136q0 15 16 31l82 84q15 14 29 14 q13 0 31 -16l80 -86q12 -16 12 -29q0 -15 -14 -31l-80 -88q-20 -20 -29 -20q-16 0 -29 14l-88 101q-10 13 -10 26z" />
<glyph unicode="@" horiz-adv-x="2019" d="M100 508q0 242 124 464.5t345.5 342t456.5 119.5q362 0 609 -230t247 -566q0 -270 -176 -439q-175 -168 -346 -170q-63 1 -100.5 18t-61.5 54q-29 -37 -82 -64.5t-133 -27.5q-144 0 -256.5 100.5t-112.5 233.5q1 87 53 166.5t132.5 115t173.5 49.5q67 16 110 42.5 t43 74.5q-2 69 -41 125t-129 56q-72 0 -121.5 -59t-50.5 -125h-45v159q0 20 72 40q73 20 178 20q109 -2 193.5 -64.5t84.5 -157.5v-589q0 -117 94 -117q185 35 267 191.5t82 382.5q-20 335 -232 540q-197 188 -480 188q-205 0 -392.5 -137.5t-269.5 -355.5 q-67 -178 -67 -361q0 -313 129.5 -511.5t305 -290.5t318.5 -92q274 0 575 208v-75q-263 -184 -571 -184q-240 0 -461 122.5t-343 342t-122 461.5zM753 343q0 -107 64 -194t183 -87q97 5 126 167v476q-54 -63 -154 -83q-83 -10 -151 -80t-68 -199z" />
<glyph unicode="A" horiz-adv-x="1192" d="M10 201q0 221 146 649q34 100 67 176t78 153.5t102.5 119.5t120.5 42q170 0 369 -309q139 -215 214 -474t75 -437q0 -152 -60 -152q-49 0 -146 59.5t-169 118.5l-74 60q-10 -8 -31.5 -22.5t-85 -50.5t-130 -63.5t-160 -50t-181.5 -22.5q-59 0 -88 27q-47 47 -47 176z M414 586q0 -58 35.5 -88.5t89.5 -30.5q61 0 109 39t48 100q0 56 -47 92.5t-106 36.5q-56 0 -92.5 -38t-36.5 -111z" />
<glyph unicode="B" horiz-adv-x="1204" d="M41 662q0 147 49 316t98 263l52 96q30 -2 79.5 -8t175.5 -34.5t223 -67.5t176 -115t79 -168q0 -82 -94 -164q295 -147 295 -374q0 -99 -55.5 -175.5t-135.5 -122t-179 -74t-176 -38.5t-139 -10q-131 0 -225 69.5t-139 180t-64.5 216t-19.5 210.5zM340 911q0 -59 34 -93 t93 -34q63 0 112.5 37t49.5 99q0 57 -47 93t-109 36q-55 0 -94 -34t-39 -104zM545 403q0 -61 33.5 -95t95 -34t109.5 38t48 100q0 55 -48 93t-107 38q-55 0 -93 -35t-38 -105z" />
<glyph unicode="C" horiz-adv-x="1180" d="M41 668q0 194 73.5 348.5t209.5 247.5q180 125 507 125q156 0 310 -31q28 -2 28 -70q0 -59 -24.5 -120.5t-57.5 -69.5q-147 -31 -282 -97.5t-230.5 -168t-95.5 -209.5q0 -82 29 -145.5t77 -103.5t103 -67.5t125 -40t124 -17.5t114 -5q-37 -140 -160 -203 q-111 -55 -301 -55q-141 0 -211 28q-111 43 -184.5 132.5t-103.5 199t-40 182t-10 140.5z" />
<glyph unicode="D" horiz-adv-x="1114" d="M41 682q0 154 24.5 319.5t49.5 253.5l24 88q11 0 31 -1t80.5 -9t120 -22.5t140.5 -45t150.5 -71.5t142.5 -108.5t124 -149.5q20 -33 51 -94.5t67.5 -178t36.5 -212.5q0 -117 -53 -204t-128 -134t-176 -75t-177 -36t-152 -8l-112 6l-25 33q-24 33 -60 97.5t-72 144 t-61.5 189t-25.5 218.5zM414 555q0 -70 35.5 -106.5t85.5 -36.5q63 0 114 46t51 109q-2 56 -43 86.5t-96 30.5q-59 0 -103 -34t-44 -95z" />
<glyph unicode="E" horiz-adv-x="1059" d="M61 420q0 272 15 448q20 275 47 445q74 59 305 59q160 0 313.5 -24.5t169.5 -49.5q84 -114 103 -284q-115 8 -156 8q-92 0 -162.5 -12.5t-108.5 -28.5t-62.5 -41t-32 -44t-7.5 -40q0 -43 11 -43q82 12 157 12q70 0 136.5 -7t99.5 -15l33 -8q0 -11 -2 -29t-24 -68.5 t-57.5 -93.5t-115.5 -90t-188 -74q88 -34 233 -65t190 -45q27 -11 53.5 -90.5t26.5 -143.5q0 -61 -28 -65q-150 -31 -310 -31q-149 0 -284 31q-144 30 -249.5 125.5t-105.5 263.5z" />
<glyph unicode="F" horiz-adv-x="915" d="M61 768q0 254 35 549q121 55 404 55q141 0 223 -16q76 -23 129 -88.5t53 -151.5q-98 -22 -176 -57t-119 -68t-68.5 -61.5t-33.5 -46.5l-8 -19l288 -4q0 -92 -28.5 -156.5t-62 -94t-86 -46t-74 -17.5t-52.5 -1q0 -180 4.5 -313.5t8.5 -176.5l4 -43q-125 -18 -207 -18 q-70 0 -118 11t-60 22l-13 10q-4 51 -16 160.5t-19.5 242.5t-7.5 328z" />
<glyph unicode="G" horiz-adv-x="1085" d="M41 657q0 117 25.5 221.5t63.5 170t75 113.5t61 69l27 20q143 121 412 121q45 0 90 -4t65 -8l23 -2q6 -2 15 -6t36 -29t47 -61.5t38.5 -110.5t24.5 -170q-135 0 -246.5 -17.5t-181 -44t-122 -64.5t-79 -71.5t-42 -71.5t-18.5 -59.5t-3 -40.5q0 -10 3 -27.5t20.5 -53 t47.5 -63.5t92.5 -49.5t146.5 -21.5q40 0 65 2q-6 64 -16 234q0 6 20 6q78 0 195.5 -43t126.5 -107q2 -10 2 -32q0 -178 -105 -312q-41 -51 -175 -101t-302 -50q-96 0 -173 44t-124 113.5t-78.5 160.5t-44 176t-12.5 169z" />
<glyph unicode="H" horiz-adv-x="1065" d="M30 1000q11 174 23 174q3 33 52 97q90 78 203 97q16 -17 73 -237q17 -126 40 -446q174 50 242 82q54 26 61 138q-9 87 -13 192q0 92 43 199q34 54 61 54q0 13 140 25q4 0 23 -181q47 -292 47 -414v-83q0 -293 -70 -588q-2 0 -27 -109h-2q-103 30 -199 136l-71 129 q-46 73 -153 104h-25q-27 0 -52 -34q-18 -29 -18 -107q-1 -54 -59 -144q-38 -44 -86 -61q0 -6 -36 -12q-68 91 -109 208q-25 68 -45 231q-43 465 -43 550z" />
<glyph unicode="I" horiz-adv-x="537" d="M61 537q0 168 15.5 411.5t15.5 249.5t1 18.5t13.5 42t33 53t64.5 42t103 18.5q66 0 146 -20q22 -127 22 -500q0 -176 -9 -326.5t-20.5 -237.5t-24.5 -150.5t-20 -88.5l-8 -22q-80 -33 -145 -33q-76 0 -131 47q-56 229 -56 496z" />
<glyph unicode="J" horiz-adv-x="684" d="M15 35v2q33 88 121 182q124 98 124 135q17 16 30 121l9 56q5 251 7 291q-20 202 -20 241v74q16 102 28 102q28 49 61 63q33 31 143 60l104 22q29 -305 42 -471q0 -169 -89 -679q-26 -126 -48 -126q-14 -23 -145 -67q-38 -18 -219 -41h-14q-49 1 -134 35z" />
<glyph unicode="K" horiz-adv-x="1335" d="M61 913q0 232 29 304q41 88 92 122q72 31 144 31q39 0 88 -22q92 -43 92 -197v-53q174 119 389 235q29 17 59 17q43 0 75 -38t44 -91.5t15.5 -88t3.5 -51.5l-2 -43l-445 -338q27 -12 70 -32.5t154.5 -82t195.5 -120.5t153.5 -140t69.5 -153q0 -27 -6 -39 q-10 -59 -72 -133q-530 268 -708 365q0 -11 -3 -40.5t-20.5 -88t-45 -106.5t-82 -86t-126.5 -38q-61 86 -112.5 339t-51.5 568z" />
<glyph unicode="L" horiz-adv-x="883" d="M61 868q0 131 6.5 247t10.5 167l6 49q123 39 235 39q123 0 164 -61v-6q0 -9 -20.5 -295.5t-20.5 -434.5q0 -90 11 -141q14 -88 184 -88q53 0 114.5 8t96.5 17l35 8q-4 -17 -12.5 -42.5t-36 -91t-59.5 -116.5t-82 -92t-101 -41q-76 0 -192.5 8t-193.5 15.5t-89 9.5 q0 2 -6.5 63.5t-13.5 157.5t-15 204.5t-14.5 223.5t-6.5 192z" />
<glyph unicode="M" horiz-adv-x="1378" d="M61 1110q86 27 263 27q84 0 143 -27t96 -65.5t101 -124.5q8 12 23 33.5t63.5 82t97.5 110.5t119.5 105.5t136.5 83.5q2 -2 6 -4q207 -133 207 -657q0 -258 -47 -578q-10 -92 -137 -100q-37 0 -90.5 12t-55.5 33q-8 209 -8 389q0 98 2 137q-74 -209 -145.5 -344 t-106.5 -166l-33 -32q-6 4 -17 14t-44 48t-63.5 84t-68.5 125t-67 169v-139q0 -228 -43 -308q-12 -26 -100 -26q-86 0 -100 24q-50 103 -82.5 376.5t-40.5 496.5z" />
<glyph unicode="N" horiz-adv-x="1182" d="M61 758q0 84 9.5 177t18.5 145.5t13 52.5l371 -129q64 -23 139.5 -58t120.5 -57l43 -25l-14 504q10 0 27.5 -3t65.5 -14.5t88 -27.5t81 -47t59 -68q23 -168 27 -245q10 -111 10 -238q0 -90 -6 -169t-16.5 -137.5t-18.5 -96t-19 -71.5t-11 -36q-45 -123 -125 -211 q0 -2 -35 12.5t-112 62.5t-163 120q-43 34 -89 89.5t-70 92.5l-25 39q6 -117 6 -223q0 -160 -20 -168q-78 -35 -172 -35l-68 6q-115 418 -115 758z" />
<glyph unicode="O" horiz-adv-x="1112" d="M41 764q0 31 2 78t2 57q6 51 39 125t92.5 151.5t157.5 132t213 54.5q100 0 213 -43q151 -62 231 -231.5t80 -380.5q0 -181 -53 -340.5t-164 -266t-256 -106.5t-256 63.5t-175.5 174t-95 244.5t-30.5 288zM430 530q0 -51 45 -94t96 -43q54 0 94 50.5t40 111.5q0 55 -36 92 t-85 37q-58 0 -106 -47t-48 -107z" />
<glyph unicode="P" horiz-adv-x="1055" d="M41 1069q0 35 7 96.5t14.5 105.5t9.5 44q239 53 442 53q500 0 500 -315q0 -84 -33 -211q-29 -107 -90.5 -190t-130 -126t-132 -70.5t-104.5 -33.5l-43 -8l8 -414q-40 -8 -96 -8q-139 0 -205 51q-20 160 -83.5 533.5t-63.5 492.5zM422 883q0 -72 35 -108t86 -36 q59 0 111.5 42t54.5 102q0 61 -41 95t-103 34q-57 0 -100 -34t-43 -95z" />
<glyph unicode="Q" horiz-adv-x="1110" d="M41 764q0 31 2 78t2 57q6 51 39 125t92.5 151.5t157.5 132t213 54.5q100 0 213 -43q151 -62 231 -231.5t80 -380.5q0 -181 -53 -340q-19 -54 -43 -103q12 -14 20 -26q21 -31 34 -57.5t20 -37.5l2 -10q-29 -49 -60 -82q-37 -39 -80 -51q-55 25 -106 59q-92 -65 -207 -65 q-145 0 -256 63.5t-175.5 174t-95 244.5t-30.5 288zM430 530q0 -51 45 -94q27 -26 57 -37q5 15 17 37q16 27 45 56q31 32 76 67q14 -8 35 -22v18q0 55 -36 92t-85 37q-58 0 -106 -47t-48 -107z" />
<glyph unicode="R" horiz-adv-x="1102" d="M41 1069q0 35 7 96.5t14.5 105.5t9.5 44q239 53 442 53q500 0 500 -315q0 -84 -33 -211q-29 -107 -90.5 -190t-128.5 -126q-14 -8 -27 -16q84 -86 150 -162q67 -78 101 -126t54.5 -84t28.5 -50l4 -12q-53 -41 -108 -60q-48 -16 -100 -16q-19 0 -38 2q-163 98 -297 234 l-47 47l6 -283q-40 -8 -96 -8q-139 0 -205 51q-20 160 -83.5 533.5t-63.5 492.5zM422 883q0 -72 35 -108t86 -36q59 0 111.5 42t54.5 102q0 61 -41 95t-103 34q-57 0 -100 -34t-43 -95z" />
<glyph unicode="S" horiz-adv-x="1106" d="M31 1006q0 157 124 250.5t279 107.5q111 8 178 8q201 0 353 -74q-9 -28 -15 -42.5t-24.5 -39t-56.5 -46t-95 -42.5q-125 -43 -125 -124.5t125 -139.5q301 -153 301 -385q0 -37 -6 -78q-27 -114 -92.5 -196t-154.5 -126t-182 -63.5t-198 -19.5q-215 0 -358 59 q27 74 74 116t93 54.5t109.5 45t110.5 85.5q39 39 39 82q0 15 -4 28t-15.5 26.5t-20.5 24.5t-27.5 23.5t-31 20.5t-36 20.5t-33.5 17.5t-36.5 17.5t-33.5 16.5q-102 49 -170.5 148.5t-70.5 224.5z" />
<glyph unicode="T" horiz-adv-x="1128" d="M10 1122q0 66 9.5 133.5t21.5 75.5q55 33 338 43q8 0 61.5 1t91.5 1q152 0 259 -4q262 -14 278 -24q21 -15 35 -65t14 -103q0 -45 -12 -72q-6 -14 -134 -56t-198 -59q-45 -321 -69 -993q-7 -2 -17 -2q-110 6 -207 76q-141 100 -141 688q0 135 10 237q-6 0 -95 8.5 t-151.5 15.5t-76.5 13q-17 6 -17 86z" />
<glyph unicode="U" horiz-adv-x="1237" d="M51 692q0 221 78 656q6 24 35 24h2q50 0 182 -100q47 -37 80 -64.5t41 -38.5l8 -10q0 -31 -10 -132t-10 -171q0 -278 155 -278q50 0 88.5 45t60 124.5t35 155.5t18.5 170t6 130t1 75q0 12 3 24.5t30 31t76 18.5q63 0 147 -25q119 -137 119 -401q0 -45 -6 -92 q-21 -205 -68 -364t-98 -239.5t-98 -132t-78 -65.5l-33 -13q-63 -20 -160 -20q-151 0 -293 61q-311 158 -311 631z" />
<glyph unicode="V" horiz-adv-x="1229" d="M109 1128q2 23 10 47.5t14 38.5l6 15q11 1 39 23q21 17 55 17q11 0 22 -2q50 -7 102.5 -46t116 -253t161.5 -558q0 14 151.5 421.5t188.5 473.5q12 24 100 24t101 -22q18 -37 18 -91q0 -104 -68 -271q-102 -253 -190 -542.5t-97.5 -318.5t-13.5 -29q-6 -28 -159 -28 q-86 -19 -154 -19q-55 0 -68 6q-90 21 -139 119q-72 141 -133 438q-77 166 -77 372q0 89 14 185z" />
<glyph unicode="W" horiz-adv-x="1358" d="M61 561q0 248 48 567q2 23 10 47.5t14 38.5l6 15q11 0 26 -3t56 -15.5t73 -29t60.5 -48t34.5 -70.5q10 -74 31.5 -193.5t32.5 -191.5q24 153 66 268t71 152l31 39h10q26 0 58 -8.5t87 -55.5t94 -129q19 -43 80 -207q0 15 -2 112t-2 165q0 270 37 336q12 24 100 24 t101 -22q53 -109 82.5 -429.5t29.5 -607.5q0 -65 -8 -125.5t-17 -89t-14 -28.5q-6 -29 -159 -29h-43q-68 0 -138.5 50t-114.5 101.5t-108 139.5q-8 -25 -19 -52.5t-43 -83t-68 -95.5t-96 -71.5t-128 -31.5q-55 0 -68 6q-90 21 -139 119q-72 141 -72 436z" />
<glyph unicode="X" horiz-adv-x="1241" d="M10 1038q0 66 77 193t116 127h8q45 -33 116.5 -122t154.5 -200.5t122 -158.5q72 81 174.5 207t167 207t68.5 83h10q63 0 182 -86q45 -33 45 -94q0 -31 -14 -64q-6 -12 -62.5 -102t-143.5 -222t-157 -226q150 -209 181 -277q26 -59 26 -110q0 -46 -18.5 -89t-33.5 -61 t-23 -25l-410 275q-166 -174 -375 -287q-6 -6 -22 -6q-41 0 -87 21.5t-46 50.5v4q22 139 266 467q-2 2 -88 127t-156 230.5t-74 117.5t-4 20z" />
<glyph unicode="Y" horiz-adv-x="1270" d="M10 1038q0 66 77 193t116 127h8q45 -33 116.5 -122t154.5 -200.5t122 -158.5q72 81 174.5 207t167 207t68.5 83h10q63 0 182 -86q45 -33 45 -94q0 -31 -14 -64q-6 -12 -62.5 -102t-143.5 -222t-157 -226l-92 -80q1 -45 1 -88q0 -255 -31 -406q-7 -6 -23 -6h-165t-124 29 v4q-20 172 -26 446q-2 2 -129 159t-197 262.5t-74 117.5t-4 20z" />
<glyph unicode="Z" horiz-adv-x="1251" d="M31 1188q0 8 16 37.5t53 76t85 87.5t126 69.5t166 28.5q74 0 163 -17.5t185.5 -53.5t161 -106.5t64.5 -160.5q0 -70 -37 -119l-29 -39q-33 -35 -69.5 -86t-75.5 -112.5t-131.5 -152.5t-92.5 -153q0 -77 103.5 -116t163 -64.5t113 -37t106.5 -11.5q8 0 29.5 1t35.5 1 q37 0 37 -22q-4 -109 -162.5 -176.5t-326.5 -67.5q-140 0 -250.5 17.5t-178 44t-116.5 66.5t-71.5 71.5t-35 75.5t-14.5 61.5t-2 46.5v8q0 84 50 175t122 163t142.5 137.5t119.5 123.5t49 95q0 113 -335 113q-125 0 -164 -4z" />
<glyph unicode="[" horiz-adv-x="758" />
<glyph unicode="\" horiz-adv-x="569" />
<glyph unicode="]" horiz-adv-x="758" />
<glyph unicode="^" horiz-adv-x="1014" />
<glyph unicode="_" d="M98 0v1434h1024v-1434h-1024zM147 49h926v1336h-926v-1336z" />
<glyph unicode="`" d="M98 0v1434h1024v-1434h-1024zM147 49h926v1336h-926v-1336z" />
<glyph unicode="a" horiz-adv-x="1155" d="M41 408q0 131 39 239.5t97.5 179t135 125t146 83t136.5 47t99.5 23.5t40.5 5q58 -49 108 -127t92 -183.5t64.5 -172t57.5 -178.5q30 -103 55 -212.5t35 -168.5l8 -60q-6 -2 -18 -2q-166 0 -301 133q-197 -139 -416 -139q-162 0 -270.5 98.5t-108.5 309.5zM315 428 q0 -53 35 -82t86 -29q56 0 102 36t46 93q0 52 -45 85.5t-103 33.5q-51 0 -86 -33.5t-35 -103.5z" />
<glyph unicode="b" horiz-adv-x="1087" d="M20 598q0 37 5 127q34 557 90 629q18 18 98 18q82 0 109 -22q22 -78 43 -359l8 -65l76 4q61 0 122.5 -7.5t147.5 -37t150.5 -76.5t109.5 -139t45 -213q0 -97 -42 -174.5t-101.5 -123.5t-150.5 -80t-153.5 -48.5t-151.5 -22.5t-107.5 -8h-51.5q-71 0 -98 27l-16 18 q-17 16 -38.5 60.5t-42 105.5t-36 164.5t-15.5 222.5zM340 414q0 -62 52 -104t115.5 -42t94.5 43t31 86q0 62 -49 113t-109 51q-53 0 -94 -48t-41 -99z" />
<glyph unicode="c" horiz-adv-x="1024" d="M41 496q0 262 154 426q176 186 485 186q154 0 272 -59q11 -23 11 -64q0 -61 -33 -131q-84 -8 -147.5 -26.5t-84.5 -32.5l-20 -15q-139 -104 -139 -225q0 -90 81.5 -181t184 -151.5t209.5 -99.5q-29 -41 -122 -82t-212 -41q-154 2 -273.5 42t-186 94t-109.5 125t-56.5 127 t-13.5 108z" />
<glyph unicode="d" horiz-adv-x="1087" d="M31 457q0 121 45 213t108.5 139t148.5 76.5t146.5 37t122.5 7.5l74 -4l8 65q21 281 43 359q27 22 109 22q77 0 96 -18q55 -72 90 -629q4 -90 4 -127q0 -119 -15.5 -222.5t-36 -164.5t-42 -105.5t-35.5 -60.5l-16 -18q-27 -27 -99 -27h-50.5t-106.5 8t-150.5 22.5 t-153 48.5t-148.5 80t-100 123.5t-42 174.5zM418 397q0 -43 30.5 -86t94 -43t115 42t51.5 104q0 51 -40 99t-94 48q-59 0 -108 -51t-49 -113z" />
<glyph unicode="e" horiz-adv-x="1069" d="M41 575q0 285 96 390q56 59 161 94t167.5 40t118.5 5q237 0 348 -131q96 -115 96 -332q-364 -74 -364 -244q0 -153 352 -266q-39 -49 -149.5 -90t-254.5 -41q-65 0 -122.5 6t-140.5 34t-142.5 74t-106.5 136t-55 213q-4 47 -4 112zM309 741q0 -59 38 -89.5t95 -30.5 q62 0 113 38.5t51 100.5q0 57 -50 96t-112 39q-59 0 -97 -38t-38 -116z" />
<glyph unicode="f" horiz-adv-x="799" d="M61 786q0 134 11 318q6 117 120.5 190.5t264.5 77.5h21q95 0 165 -16q68 -17 110 -69t56 -105q-174 -25 -287.5 -115t-140.5 -240h299q-18 -102 -109.5 -169.5t-189.5 -75.5v-84q0 -68 -4 -232t-4 -256q-99 -10 -135 -10q-101 0 -144 37q-33 336 -33 749z" />
<glyph unicode="g" horiz-adv-x="1059" d="M0 613q0 -124 44 -218t106 -142t144.5 -79t142.5 -38t120 -7h10q-26 -131 -134 -227l-18 -14q-16 -14 -68 -32t-121 -26q-26 -70 -26 -130q0 -40 8 -62q97 -56 223 -56q256 2 400 184q121 168 135 573q4 92 4 128q0 122 -15 227.5t-35 168.5t-40.5 108t-34.5 61l-16 18 q-26 28 -96 28h-50t-104 -8t-147 -23t-148.5 -50t-144.5 -82t-98 -126t-41 -176zM377 673q0 43 30 87t92 44t112 -43t50 -104q0 -54 -39 -103t-91 -49q-58 0 -106 53t-48 115z" />
<glyph unicode="h" horiz-adv-x="953" d="M0 597q13 312 24 312q14 103 51 250q40 114 84 179q38 47 41 47q41 -42 68 -87q46 -63 65 -189l20 -208q76 0 191 -38q88 -41 135 -89q30 -25 81 -95q68 -131 68 -171q25 -75 25 -244v-54q0 -32 -15 -172h-4q-62 36 -125 93q-49 51 -66 103q-23 44 -46 109 q-43 74 -113 104q-65 31 -97 31q-73 -115 -73 -224q0 -54 -26 -139q-42 -70 -151 -115q-53 65 -66 119q-71 163 -71 478z" />
<glyph unicode="i" horiz-adv-x="485" d="M0 862v121v5t4.5 9.5t11.5 13.5t23.5 9t40.5 4q101 0 299 -61q7 -74 7 -164q0 -183 -18.5 -408t-41.5 -289q-16 -51 -44 -76.5t-81 -25.5q-55 0 -105 17.5t-55 37.5q-41 197 -41 807zM3 1270q0 43 10 53q18 25 68.5 37t91 12t66.5 -4t54.5 -17.5t42 -46t13.5 -83.5 q0 -97 -58 -101q-90 -8 -112 -8q-115 0 -145.5 29.5t-30.5 128.5z" />
<glyph unicode="j" horiz-adv-x="678" d="M0 -374q47 150 81 185q24 24 144 115q4 17 8 27q-2 97 -2 149v41l-24 343v103q0 89 28 211q34 72 51 79q21 30 83 54q79 19 148 19q7 0 22 -146q39 -224 39 -545q-22 -232 -43 -282q-17 -97 -71 -191q-11 -26 -53 -69q-29 -37 -85 -66q-55 -43 -188 -43q-87 4 -136 14 q0 2 -2 2zM184 1256q16 74 47 107q0 6 41 32l44 9q57 0 124 -53q56 -54 89 -99q-58 -101 -116 -150q-34 -25 -68 -25q-79 0 -161 179z" />
<glyph unicode="k" horiz-adv-x="1024" d="M61 717q0 182 33 370q29 142 84 228q35 61 90 61q31 0 70 -18q72 -33 72 -455v-41q137 92 305 185q22 12 47 12q35 0 59.5 -30t33.5 -72t12 -68.5t3 -40.5l-2 -33l-348 -266q21 -8 54.5 -24.5t120.5 -64.5t153.5 -95.5t121 -111t54.5 -118.5q0 -20 -4 -31 q-8 -47 -57 -104q-416 211 -555 287q0 -8 -3.5 -32t-16.5 -70t-34.5 -84t-64.5 -67.5t-99 -29.5q-49 68 -89 266.5t-40 446.5z" />
<glyph unicode="l" horiz-adv-x="551" d="M61 438l23 860q6 9 17.5 21t56.5 32.5t102 20.5q152 0 152 -84v-8q-17 -262 -17 -465q0 -557 105 -569h2l49 -2q-29 -156 -76 -205t-143 -49q-72 0 -137 45q-70 45 -102 173t-32 230z" />
<glyph unicode="m" horiz-adv-x="1741" d="M61 285q-3 42 -3 86q0 312 161 710l129 -22q76 47 178 55q18 1 36 1q130 0 229 -64q73 -52 122 -119l95 104q75 47 178 56q18 1 35 1q129 0 229 -66q113 -75 168 -191.5t65 -257.5q3 -35 3 -70q0 -124 -36 -244q-46 -154 -141 -258q-6 -6 -16 -6h-4q-20 0 -52 18 q-36 20 -63 41l-24 21q18 118 18 226q0 50 -4 97q-17 240 -146 240h-10q-82 -6 -134 -106.5t-70.5 -214t-56.5 -213t-91 -103.5h-5q-40 0 -67 31q-4 2 -6 4q-37 20 -63 41l-25 20q19 119 19 229q0 49 -4 95q-18 240 -146 240h-10q-82 -7 -134.5 -107t-70.5 -214t-56 -213 t-91 -103h-7q-109 0 -129 256z" />
<glyph unicode="n" horiz-adv-x="1077" d="M61 285q-3 42 -3 86q0 312 161 710l129 -22q76 47 178 55q18 1 35 1q129 1 229 -65q112 -74 168 -191.5t68 -258.5q2 -33 3 -65q0 -127 -38 -249q-47 -154 -141 -257q-6 -6 -16 -6h-6q-20 -1 -50 17q-35 20 -61 42l-27 20q20 126 20 240q0 43 -3 84q-20 240 -148 240h-10 q-82 -7 -133 -107t-69.5 -214t-56.5 -213t-93 -103h-7q-109 0 -129 256z" />
<glyph unicode="o" horiz-adv-x="1065" d="M41 516q0 340 92 440q129 142 449 142q237 0 346 -131q96 -113 96 -318q-2 -203 -72 -381q-112 -278 -331 -278q-25 0 -74 4q-133 22 -232.5 73.5t-149.5 103.5t-80 117.5t-35 99.5t-7 65q-2 26 -2 63zM430 414q0 -49 45 -102.5t104.5 -53.5t105.5 56.5t46 123.5 q0 49 -22 82q-41 58 -107 58q-63 0 -117.5 -50.5t-54.5 -113.5z" />
<glyph unicode="p" horiz-adv-x="1110" d="M61 823q0 191 13 275l28 -4q29 -4 75 -7.5t89 -3.5q53 0 147.5 5.5t123.5 5.5q141 0 246.5 -36t156.5 -83t83 -110.5t39 -99.5t7 -69v-41q0 -127 -29.5 -231.5t-73.5 -170t-102.5 -114.5t-110 -73.5t-103.5 -38t-74.5 -16.5t-30.5 -3l-123 -16q59 -277 59 -352 q0 -37 -129 -37q-102 0 -139 14q-10 0 -55 256q-97 522 -97 950zM481 520q0 -61 40 -94t100 -33q65 0 119.5 41t54.5 107q0 61 -52.5 102t-117.5 41q-64 0 -104 -41t-40 -123z" />
<glyph unicode="q" horiz-adv-x="1049" d="M0 541q0 -127 45 -223.5t108.5 -145.5t148.5 -81t146.5 -39t122.5 -7l74 4l8 -67q21 -295 43 -377q27 -23 109 -23q78 0 96 19q55 75 90 659q4 94 4 131q0 125 -15 233.5t-35.5 173t-42 110.5t-36.5 63l-16 18q-27 29 -98 29h-51.5t-106.5 -8.5t-150.5 -23.5t-152.5 -51 t-148.5 -84t-100.5 -129t-42 -181zM387 602q0 45 31 90t94 45t114.5 -44t51.5 -107q0 -56 -40 -106t-93 -50q-60 0 -109 54.5t-49 117.5z" />
<glyph unicode="r" horiz-adv-x="834" d="M51 831q0 152 25 265q131 -19 221 -90q289 84 428 84q61 0 109 -9q0 -88 -37 -131q-4 -2 -29 -14t-39 -20.5t-44 -27t-49.5 -32.5t-49 -38.5t-48 -47t-40 -54.5t-34.5 -65t-21.5 -72.5t-8.5 -82.5q0 -52 20.5 -222t20.5 -219q0 -28 -12 -37q-41 -28 -199 -28h-9t-21.5 4 t-28.5 10t-24.5 19.5t-16.5 31.5q-113 502 -113 776z" />
<glyph unicode="s" horiz-adv-x="989" d="M20 143q0 21 39 21q111 2 213.5 53t102.5 127q0 47 -47 96q-35 37 -91.5 84t-94.5 90t-76 113q-27 47 -27 94q0 121 161.5 199t356.5 78q135 0 229.5 -42t112.5 -126q-88 -4 -224 -38t-136 -93q0 -17 16 -39q39 -47 116 -99.5t139 -90.5t110.5 -101t48.5 -139 q-13 -142 -198 -241t-390 -99q-137 0 -249 50t-112 103z" />
<glyph unicode="t" horiz-adv-x="812" d="M41 944q0 45 11.5 85t25.5 44q33 10 82 17l6 208q6 9 17.5 21t56.5 32.5t102 20.5q152 0 152 -84v-8q-6 -82 -9 -160q78 4 168 8l86 5h3.5t7.5 -3.5t9 -8.5t7 -18t4 -34v-8q0 -80 -37 -232q-51 -6 -116 -8q-44 -3 -92 -3q-24 0 -48 1v-4q0 -557 105 -569h2l49 -2 q-29 -156 -76 -205t-143 -49q-72 0 -137 45q-70 45 -102 173t-32 230l11 402q-23 4 -35 8q-39 12 -57.5 33.5t-20.5 62.5z" />
<glyph unicode="u" horiz-adv-x="1077" d="M41 551q0 160 58.5 310.5t160.5 244.5q6 6 16 6q21 0 55 -23.5t58 -46.5l25 -22q-41 -168 -41 -322q0 -249 137 -249q82 0 141.5 95t87 207.5t72.5 208t100 95.5q115 0 115 -264q0 -345 -219 -783l-127 33q-80 -41 -182 -41q-152 0 -258.5 84t-152.5 205t-46 262z" />
<glyph unicode="v" horiz-adv-x="1229" d="M106 913q3 19 10 38.5t13 31.5l6 10q8 1 34 19q20 15 53 14q9 0 18 -1q45 -5 92 -37t105.5 -205t146.5 -451q0 12 138 340.5t171 382.5q12 20 92 20t90 -18q17 -30 17 -75q0 -84 -61 -217q-93 -204 -173 -438.5t-88 -257t-12 -22.5q-6 -24 -146 -24q-77 -15 -139 -15 q-51 0 -61 4q-82 19 -127 97q-66 114 -121 354q-71 135 -71 302q0 71 13 148z" />
<glyph unicode="w" horiz-adv-x="1335" d="M61 434q0 191 48 436q2 19 9 37.5t13 30.5l6 10q10 0 25.5 -2t55.5 -11t70.5 -22.5t59.5 -38t35 -53.5q10 -57 30.5 -149t30.5 -148q25 117 66 206t70 118l30 29h8q27 0 59 -6.5t86 -42t91 -99.5q18 -33 78 -160q0 11 -2 86.5t-2 126.5q0 209 37 260q12 19 98 19t98 -17 q53 -83 82 -331t29 -469q0 -51 -8.5 -97.5t-17.5 -69t-13 -22.5q-6 -22 -156 -22h-43q-65 0 -135 39t-113 78.5t-104 107.5q-8 -18 -19.5 -39.5t-42 -64.5t-66.5 -74t-94.5 -55.5t-125.5 -24.5q-53 0 -66 4q-88 16 -137 92q-70 109 -70 338z" />
<glyph unicode="x" horiz-adv-x="1241" d="M66 63v5q22 122 264 415q-2 0 -87 112t-111 150.5t-30 50t-4 17.5q0 59 76 172t115 113h8q45 -29 116.5 -108t110.5 -124t76 -86q72 72 127 131.5t119.5 131t68.5 73.5h11q61 0 180 -76q45 -30 45 -84q0 -28 -14 -57l-63 -90t-96 -144.5t-108 -148.5q148 -186 179 -246 q26 -53 26 -98q0 -41 -18.5 -79t-33.5 -54t-24 -23l-407 244q-164 -154 -371 -254q-6 -6 -22 -6q-41 0 -87 19.5t-46 43.5z" />
<glyph unicode="y" horiz-adv-x="1077" d="M50 792q28 151 106 256q6 8 16 10q17 4 53 -13t64 -32l27 -18q-3 -43 -3 -85q0 -117 21 -223q41 -212 148 -212q12 0 25 3q77 13 116 113q31 78 44.5 215.5t31.5 204.5q25 96 76 105q17 3 32 3q82 0 123 -101q48 -120 48 -607.5t-29.5 -609.5t-91.5 -165 q-61 -43 -125 -43q-88 0 -131 47t-68 195l45 2h2q64 8 84 244q-41 -17 -88 -27q-42 -7 -82 -7q-95 0 -175 41q-114 60 -178.5 164.5t-90.5 237.5q-15 76 -15 152q0 74 15 150z" />
<glyph unicode="z" horiz-adv-x="991" d="M31 883q0 6 13 28.5t44 56t71 64.5t104.5 52.5t135.5 21.5q62 0 135.5 -13.5t153.5 -40t133 -78.5t53 -120q0 -51 -30 -88l-25 -29q-26 -26 -57 -64t-62.5 -84t-53 -99.5t-21.5 -98.5q0 -59 30.5 -102t79.5 -62.5t93 -28t87 -8.5q9 0 26 1.5t30 1.5q30 0 30 -17 q-4 -82 -135 -132t-270 -50q-115 0 -206 13t-147.5 32.5t-97.5 49.5t-59 53.5t-28.5 56t-11.5 46t-1 34.5v6q0 63 41 130.5t100.5 121t117.5 102.5t99 92t41 72q0 84 -278 84q-103 0 -135 -4z" />
<glyph unicode="{" d="M98 0v1434h1024v-1434h-1024zM147 49h926v1336h-926v-1336z" />
<glyph unicode="|" d="M98 0v1434h1024v-1434h-1024zM147 49h926v1336h-926v-1336z" />
<glyph unicode="}" d="M98 0v1434h1024v-1434h-1024zM147 49h926v1336h-926v-1336z" />
<glyph unicode="~" d="M98 0v1434h1024v-1434h-1024zM147 49h926v1336h-926v-1336z" />
<glyph unicode="&#xa1;" horiz-adv-x="672" />
<glyph unicode="&#xa2;" horiz-adv-x="1139" />
<glyph unicode="&#xa3;" d="M98 0v1434h1024v-1434h-1024zM147 49h926v1336h-926v-1336z" />
<glyph unicode="&#xa4;" d="M98 0v1434h1024v-1434h-1024zM147 49h926v1336h-926v-1336z" />
<glyph unicode="&#xa5;" d="M98 0v1434h1024v-1434h-1024zM147 49h926v1336h-926v-1336z" />
<glyph unicode="&#xa6;" d="M98 0v1434h1024v-1434h-1024zM147 49h926v1336h-926v-1336z" />
<glyph unicode="&#xa7;" d="M98 0v1434h1024v-1434h-1024zM147 49h926v1336h-926v-1336z" />
<glyph unicode="&#xa8;" d="M98 0v1434h1024v-1434h-1024zM147 49h926v1336h-926v-1336z" />
<glyph unicode="&#xa9;" d="M98 0v1434h1024v-1434h-1024zM147 49h926v1336h-926v-1336z" />
<glyph unicode="&#xaa;" horiz-adv-x="648" />
<glyph unicode="&#xab;" d="M98 0v1434h1024v-1434h-1024zM147 49h926v1336h-926v-1336z" />
<glyph unicode="&#xac;" d="M98 0v1434h1024v-1434h-1024zM147 49h926v1336h-926v-1336z" />
<glyph unicode="&#xad;" horiz-adv-x="670" d="M116 437v83q0 29 41 29h356q41 0 41 -29v-83q0 -28 -40 -28h-358q-40 0 -40 28z" />
<glyph unicode="&#xae;" d="M98 0v1434h1024v-1434h-1024zM147 49h926v1336h-926v-1336z" />
<glyph unicode="&#xaf;" horiz-adv-x="670" />
<glyph unicode="&#xb0;" d="M98 0v1434h1024v-1434h-1024zM147 49h926v1336h-926v-1336z" />
<glyph unicode="&#xb1;" horiz-adv-x="1014" />
<glyph unicode="&#xb2;" horiz-adv-x="1014" />
<glyph unicode="&#xb3;" horiz-adv-x="1014" />
<glyph unicode="&#xb4;" d="M98 0v1434h1024v-1434h-1024zM147 49h926v1336h-926v-1336z" />
<glyph unicode="&#xb5;" horiz-adv-x="1180" />
<glyph unicode="&#xb6;" d="M98 0v1434h1024v-1434h-1024zM147 49h926v1336h-926v-1336z" />
<glyph unicode="&#xb7;" d="M98 0v1434h1024v-1434h-1024zM147 49h926v1336h-926v-1336z" />
<glyph unicode="&#xb8;" d="M98 0v1434h1024v-1434h-1024zM147 49h926v1336h-926v-1336z" />
<glyph unicode="&#xb9;" horiz-adv-x="1014" />
<glyph unicode="&#xba;" horiz-adv-x="718" />
<glyph unicode="&#xbb;" d="M98 0v1434h1024v-1434h-1024zM147 49h926v1336h-926v-1336z" />
<glyph unicode="&#xbc;" horiz-adv-x="1708" />
<glyph unicode="&#xbd;" horiz-adv-x="1964" />
<glyph unicode="&#xbe;" horiz-adv-x="1708" />
<glyph unicode="&#xbf;" horiz-adv-x="748" />
<glyph unicode="&#xc0;" horiz-adv-x="1540" />
<glyph unicode="&#xc1;" horiz-adv-x="1540" />
<glyph unicode="&#xc2;" horiz-adv-x="1540" />
<glyph unicode="&#xc3;" horiz-adv-x="1540" />
<glyph unicode="&#xc4;" horiz-adv-x="1540" />
<glyph unicode="&#xc5;" horiz-adv-x="1540" />
<glyph unicode="&#xc6;" horiz-adv-x="2118" />
<glyph unicode="&#xc7;" horiz-adv-x="1399" />
<glyph unicode="&#xc8;" horiz-adv-x="1151" />
<glyph unicode="&#xc9;" horiz-adv-x="1151" />
<glyph unicode="&#xca;" horiz-adv-x="1151" />
<glyph unicode="&#xcb;" horiz-adv-x="1151" />
<glyph unicode="&#xcc;" horiz-adv-x="657" />
<glyph unicode="&#xcd;" horiz-adv-x="657" />
<glyph unicode="&#xce;" horiz-adv-x="657" />
<glyph unicode="&#xcf;" horiz-adv-x="657" />
<glyph unicode="&#xd0;" horiz-adv-x="1518" />
<glyph unicode="&#xd1;" horiz-adv-x="1554" />
<glyph unicode="&#xd2;" horiz-adv-x="1614" />
<glyph unicode="&#xd3;" horiz-adv-x="1614" />
<glyph unicode="&#xd4;" horiz-adv-x="1614" />
<glyph unicode="&#xd5;" horiz-adv-x="1614" />
<glyph unicode="&#xd6;" horiz-adv-x="1614" />
<glyph unicode="&#xd7;" d="M98 0v1434h1024v-1434h-1024zM147 49h926v1336h-926v-1336z" />
<glyph unicode="&#xd8;" horiz-adv-x="1614" />
<glyph unicode="&#xd9;" horiz-adv-x="1501" />
<glyph unicode="&#xda;" horiz-adv-x="1501" />
<glyph unicode="&#xdb;" horiz-adv-x="1501" />
<glyph unicode="&#xdc;" horiz-adv-x="1501" />
<glyph unicode="&#xdd;" horiz-adv-x="1233" />
<glyph unicode="&#xde;" horiz-adv-x="1120" />
<glyph unicode="&#xdf;" horiz-adv-x="1251" />
<glyph unicode="&#xe0;" horiz-adv-x="922" />
<glyph unicode="&#xe1;" horiz-adv-x="922" />
<glyph unicode="&#xe2;" horiz-adv-x="922" />
<glyph unicode="&#xe3;" horiz-adv-x="922" />
<glyph unicode="&#xe4;" horiz-adv-x="922" />
<glyph unicode="&#xe5;" horiz-adv-x="922" />
<glyph unicode="&#xe6;" horiz-adv-x="1454" />
<glyph unicode="&#xe7;" horiz-adv-x="905" />
<glyph unicode="&#xe8;" horiz-adv-x="909" />
<glyph unicode="&#xe9;" horiz-adv-x="909" />
<glyph unicode="&#xea;" horiz-adv-x="909" />
<glyph unicode="&#xeb;" horiz-adv-x="909" />
<glyph unicode="&#xec;" horiz-adv-x="514" />
<glyph unicode="&#xed;" horiz-adv-x="514" />
<glyph unicode="&#xee;" horiz-adv-x="514" />
<glyph unicode="&#xef;" horiz-adv-x="514" />
<glyph unicode="&#xf0;" horiz-adv-x="1139" />
<glyph unicode="&#xf1;" horiz-adv-x="1108" />
<glyph unicode="&#xf2;" horiz-adv-x="1010" />
<glyph unicode="&#xf3;" horiz-adv-x="1010" />
<glyph unicode="&#xf4;" horiz-adv-x="1010" />
<glyph unicode="&#xf5;" horiz-adv-x="1010" />
<glyph unicode="&#xf6;" horiz-adv-x="1010" />
<glyph unicode="&#xf7;" d="M98 0v1434h1024v-1434h-1024zM147 49h926v1336h-926v-1336z" />
<glyph unicode="&#xf8;" horiz-adv-x="1010" />
<glyph unicode="&#xf9;" horiz-adv-x="1059" />
<glyph unicode="&#xfa;" horiz-adv-x="1059" />
<glyph unicode="&#xfb;" horiz-adv-x="1059" />
<glyph unicode="&#xfc;" horiz-adv-x="1059" />
<glyph unicode="&#xfd;" horiz-adv-x="868" />
<glyph unicode="&#xfe;" horiz-adv-x="1010" />
<glyph unicode="&#xff;" horiz-adv-x="868" />
<glyph unicode="&#x2c6;" d="M98 0v1434h1024v-1434h-1024zM147 49h926v1336h-926v-1336z" />
<glyph unicode="&#x2dc;" d="M98 0v1434h1024v-1434h-1024zM147 49h926v1336h-926v-1336z" />
<glyph unicode="&#x2000;" horiz-adv-x="743" />
<glyph unicode="&#x2001;" horiz-adv-x="1487" />
<glyph unicode="&#x2002;" horiz-adv-x="743" />
<glyph unicode="&#x2003;" horiz-adv-x="1487" />
<glyph unicode="&#x2004;" horiz-adv-x="495" />
<glyph unicode="&#x2005;" horiz-adv-x="371" />
<glyph unicode="&#x2006;" horiz-adv-x="247" />
<glyph unicode="&#x2007;" horiz-adv-x="247" />
<glyph unicode="&#x2008;" horiz-adv-x="185" />
<glyph unicode="&#x2009;" horiz-adv-x="297" />
<glyph unicode="&#x200a;" horiz-adv-x="82" />
<glyph unicode="&#x2010;" horiz-adv-x="670" d="M116 437v83q0 29 41 29h356q41 0 41 -29v-83q0 -28 -40 -28h-358q-40 0 -40 28z" />
<glyph unicode="&#x2011;" horiz-adv-x="670" d="M116 437v83q0 29 41 29h356q41 0 41 -29v-83q0 -28 -40 -28h-358q-40 0 -40 28z" />
<glyph unicode="&#x2012;" horiz-adv-x="670" d="M116 437v83q0 29 41 29h356q41 0 41 -29v-83q0 -28 -40 -28h-358q-40 0 -40 28z" />
<glyph unicode="&#x2013;" d="M98 0v1434h1024v-1434h-1024zM147 49h926v1336h-926v-1336z" />
<glyph unicode="&#x2014;" d="M98 0v1434h1024v-1434h-1024zM147 49h926v1336h-926v-1336z" />
<glyph unicode="&#x2018;" d="M98 0v1434h1024v-1434h-1024zM147 49h926v1336h-926v-1336z" />
<glyph unicode="&#x2019;" d="M98 0v1434h1024v-1434h-1024zM147 49h926v1336h-926v-1336z" />
<glyph unicode="&#x201a;" d="M98 0v1434h1024v-1434h-1024zM147 49h926v1336h-926v-1336z" />
<glyph unicode="&#x201c;" d="M98 0v1434h1024v-1434h-1024zM147 49h926v1336h-926v-1336z" />
<glyph unicode="&#x201d;" d="M98 0v1434h1024v-1434h-1024zM147 49h926v1336h-926v-1336z" />
<glyph unicode="&#x201e;" d="M98 0v1434h1024v-1434h-1024zM147 49h926v1336h-926v-1336z" />
<glyph unicode="&#x2022;" d="M98 0v1434h1024v-1434h-1024zM147 49h926v1336h-926v-1336z" />
<glyph unicode="&#x2026;" d="M98 0v1434h1024v-1434h-1024zM147 49h926v1336h-926v-1336z" />
<glyph unicode="&#x202f;" horiz-adv-x="297" />
<glyph unicode="&#x2039;" d="M98 0v1434h1024v-1434h-1024zM147 49h926v1336h-926v-1336z" />
<glyph unicode="&#x203a;" d="M98 0v1434h1024v-1434h-1024zM147 49h926v1336h-926v-1336z" />
<glyph unicode="&#x205f;" horiz-adv-x="371" />
<glyph unicode="&#x20ac;" d="M98 0v1434h1024v-1434h-1024zM147 49h926v1336h-926v-1336z" />
<glyph unicode="&#x2122;" horiz-adv-x="1497" />
<glyph unicode="&#x25fc;" horiz-adv-x="1115" d="M0 0v1115h1115v-1115h-1115z" />
</font>
</defs>
</svg>
