<svg width="450" height="300" viewBox="0 0 450 300" fill="none" xmlns="http://www.w3.org/2000/svg">
<g clip-path="url(#clip0_1265_9246)">
<mask id="mask0_1265_9246" style="mask-type:alpha" maskUnits="userSpaceOnUse" x="0" y="0" width="450" height="300">
<path d="M450 147.008V300H147.07C65.85 300 0 234.178 0 152.992V0H302.93C384.15 0 450 65.8223 450 147.008Z" fill="#1D1D1B"/>
</mask>
<g mask="url(#mask0_1265_9246)">
<path fill-rule="evenodd" clip-rule="evenodd" d="M0.0899658 99.3248H449.789V0H0.0899658V99.3248Z" fill="#33B2E9"/>
<path fill-rule="evenodd" clip-rule="evenodd" d="M0 299.799H449.699V200.475H0V299.799Z" fill="#33B2E9"/>
<path fill-rule="evenodd" clip-rule="evenodd" d="M0.0899658 200.475H449.789V100.238H0.0899658V200.475Z" fill="white"/>
<path fill-rule="evenodd" clip-rule="evenodd" d="M252.314 149.514C252.314 161.518 242.35 171.25 230.059 171.25C217.768 171.25 207.803 161.518 207.803 149.514C207.803 137.51 217.768 127.778 230.059 127.778C242.35 127.778 252.314 137.51 252.314 149.514Z" stroke="#FBBE4B" stroke-width="2.791"/>
<path fill-rule="evenodd" clip-rule="evenodd" d="M236.902 170.432C237.082 172.479 237.235 174.59 237.432 176.648C237.536 177.678 237.638 178.708 237.781 179.711C237.927 180.709 238.078 181.716 238.326 182.57L238.418 182.87L238.514 183.132C238.54 183.187 238.573 183.288 238.589 183.317C238.598 183.334 238.604 183.355 238.61 183.376L238.718 183.521C239.009 183.919 239.358 184.335 239.712 184.8C240.422 185.717 241.093 186.906 241.357 188.081C241.649 189.26 241.686 190.408 241.631 191.516C241.576 192.628 241.398 193.708 241.175 194.772L240.782 194.757C240.604 193.693 240.475 192.638 240.226 191.625C239.995 190.616 239.694 189.642 239.266 188.807C239.166 188.593 239.029 188.407 238.919 188.209C238.784 188.025 238.669 187.834 238.516 187.666C238.238 187.314 237.906 187.003 237.536 186.669C237.17 186.33 236.757 185.983 236.331 185.579L236.168 185.425L235.943 185.165C235.789 184.985 235.705 184.842 235.587 184.674C235.493 184.523 235.403 184.368 235.321 184.217L235.104 183.779C234.586 182.635 234.237 181.561 233.946 180.474C233.652 179.39 233.404 178.316 233.2 177.239C232.786 175.079 232.48 172.951 232.324 170.75L236.902 170.432Z" fill="#FBBE4B"/>
<path fill-rule="evenodd" clip-rule="evenodd" d="M232.332 170.746C232.451 172.819 232.43 174.89 232.355 176.964C232.283 179.037 232.166 181.11 231.982 183.183C231.806 185.257 231.581 187.328 231.307 189.401C231.031 191.475 230.71 193.548 230.256 195.621H229.863C229.407 193.548 229.088 191.475 228.812 189.401C228.536 187.328 228.311 185.257 228.135 183.183C227.953 181.11 227.836 179.037 227.761 176.964C227.689 174.89 227.668 172.819 227.787 170.746H232.332Z" fill="#FBBE4B"/>
<path fill-rule="evenodd" clip-rule="evenodd" d="M244.578 166.282C245.545 168.105 246.515 169.999 247.503 171.827C248.002 172.741 248.501 173.652 249.025 174.527C249.552 175.395 250.086 176.268 250.649 176.964L250.853 177.204L251.043 177.413C251.09 177.455 251.16 177.533 251.185 177.554C251.199 177.569 251.213 177.585 251.227 177.602L251.385 177.697C251.81 177.954 252.295 178.21 252.804 178.506C253.819 179.089 254.905 179.935 255.609 180.923C256.341 181.903 256.824 182.95 257.21 183.996C257.595 185.043 257.851 186.105 258.063 187.171L257.695 187.305C257.112 186.39 256.58 185.463 255.954 184.62C255.343 183.774 254.686 182.987 253.962 182.373C253.786 182.215 253.586 182.094 253.406 181.951C253.21 181.832 253.029 181.699 252.823 181.601C252.428 181.382 251.997 181.217 251.524 181.045C251.056 180.869 250.538 180.703 249.986 180.489L249.775 180.409L249.466 180.252C249.252 180.143 249.117 180.042 248.941 179.931C248.799 179.826 248.656 179.717 248.521 179.61L248.147 179.285C247.22 178.422 246.478 177.56 245.782 176.664C245.087 175.773 244.435 174.873 243.825 173.954C242.594 172.114 241.481 170.262 240.472 168.287L244.578 166.282Z" fill="#FBBE4B"/>
<path fill-rule="evenodd" clip-rule="evenodd" d="M240.478 168.28C241.399 170.15 242.192 172.073 242.937 174.016C243.681 175.959 244.385 177.918 245.029 179.901C245.678 181.883 246.283 183.882 246.84 185.9C247.398 187.917 247.915 189.952 248.306 192.037L247.942 192.184C246.711 190.44 245.604 188.643 244.536 186.832C243.469 185.019 242.45 183.188 241.476 181.338C240.494 179.493 239.574 177.622 238.692 175.734C237.813 173.846 236.982 171.939 236.279 169.979L240.478 168.28Z" fill="#FBBE4B"/>
<path fill-rule="evenodd" clip-rule="evenodd" d="M250.044 159.579C251.652 160.902 253.29 162.289 254.917 163.609C255.739 164.267 256.555 164.922 257.383 165.535C258.208 166.139 259.046 166.747 259.836 167.179L260.12 167.326L260.376 167.446C260.437 167.467 260.533 167.515 260.564 167.525C260.583 167.532 260.601 167.542 260.623 167.553L260.803 167.58C261.298 167.66 261.845 167.714 262.432 167.798C263.598 167.956 264.933 168.335 265.972 168.983C267.032 169.613 267.887 170.402 268.654 171.222C269.419 172.046 270.075 172.932 270.687 173.838L270.399 174.102C269.501 173.471 268.646 172.814 267.738 172.271C266.844 171.715 265.927 171.234 265.017 170.939C264.792 170.857 264.561 170.821 264.34 170.756C264.111 170.72 263.892 170.664 263.663 170.651C263.211 170.595 262.751 170.605 262.245 170.622C261.744 170.635 261.202 170.676 260.605 170.685L260.38 170.687L260.032 170.66C259.793 170.639 259.629 170.595 259.423 170.559C259.249 170.515 259.075 170.469 258.907 170.418L258.435 170.259C257.242 169.808 256.217 169.288 255.223 168.721C254.233 168.157 253.278 167.569 252.354 166.948C250.496 165.707 248.741 164.414 247.035 162.965L250.044 159.579Z" fill="#FBBE4B"/>
<path fill-rule="evenodd" clip-rule="evenodd" d="M247.038 162.958C248.623 164.341 250.108 165.822 251.558 167.338C253.006 168.855 254.424 170.403 255.796 171.994C257.173 173.58 258.513 175.202 259.82 176.857C261.125 178.514 262.401 180.199 263.581 181.98L263.301 182.252C261.479 181.099 259.752 179.855 258.057 178.579C256.361 177.304 254.7 175.994 253.076 174.65C251.446 173.309 249.862 171.925 248.308 170.511C246.757 169.095 245.242 167.645 243.824 166.097L247.038 162.958Z" fill="#FBBE4B"/>
<path fill-rule="evenodd" clip-rule="evenodd" d="M252.466 151.344C254.47 151.965 256.526 152.634 258.549 153.245C259.565 153.545 260.576 153.847 261.58 154.103C262.58 154.353 263.591 154.602 264.491 154.705L264.812 154.734L265.096 154.751C265.158 154.747 265.266 154.755 265.299 154.753C265.321 154.753 265.342 154.755 265.364 154.756L265.544 154.716C266.031 154.604 266.557 154.449 267.132 154.307C268.271 154.017 269.654 153.866 270.866 154.078C272.092 154.265 273.192 154.672 274.223 155.144C275.252 155.62 276.205 156.195 277.126 156.803L276.962 157.153C275.888 156.906 274.839 156.618 273.787 156.455C272.744 156.277 271.705 156.176 270.752 156.243C270.511 156.251 270.282 156.304 270.054 156.325C269.829 156.379 269.604 156.409 269.386 156.482C268.948 156.6 268.526 156.78 268.068 156.986C267.608 157.187 267.121 157.426 266.575 157.655L266.367 157.743L266.037 157.848C265.806 157.917 265.64 157.94 265.434 157.982C265.256 158.007 265.076 158.03 264.902 158.045L264.405 158.074C263.124 158.104 261.973 158.007 260.832 157.854C259.698 157.703 258.584 157.518 257.487 157.288C255.286 156.837 253.157 156.298 251.015 155.597L252.466 151.344Z" fill="#FBBE4B"/>
<path fill-rule="evenodd" clip-rule="evenodd" d="M251.013 155.588C253.019 156.274 254.973 157.086 256.906 157.946C258.839 158.806 260.755 159.706 262.645 160.663C264.539 161.615 266.413 162.61 268.268 163.653C270.125 164.695 271.964 165.778 273.75 166.98L273.599 167.336C271.465 166.952 269.381 166.447 267.315 165.903C265.247 165.358 263.2 164.767 261.173 164.133C259.143 163.504 257.135 162.818 255.147 162.09C253.16 161.364 251.189 160.59 249.274 159.688L251.013 155.588Z" fill="#FBBE4B"/>
<path fill-rule="evenodd" clip-rule="evenodd" d="M251.478 142.83C253.573 142.656 255.735 142.505 257.842 142.312C258.899 142.211 259.951 142.111 260.98 141.974C262 141.83 263.031 141.681 263.905 141.441L264.213 141.349L264.481 141.257C264.537 141.23 264.641 141.198 264.67 141.183C264.688 141.175 264.709 141.167 264.731 141.162L264.88 141.057C265.287 140.772 265.713 140.432 266.189 140.086C267.128 139.392 268.345 138.737 269.548 138.479C270.755 138.194 271.931 138.16 273.068 138.211C274.206 138.265 275.31 138.441 276.4 138.657L276.384 139.041C275.294 139.215 274.214 139.341 273.179 139.583C272.144 139.809 271.146 140.103 270.291 140.522C270.072 140.619 269.883 140.753 269.679 140.86C269.491 140.992 269.296 141.104 269.123 141.253C268.765 141.525 268.444 141.85 268.102 142.213C267.756 142.568 267.4 142.971 266.987 143.388L266.828 143.546L266.562 143.768C266.378 143.917 266.232 143.999 266.059 144.116C265.905 144.206 265.748 144.294 265.592 144.374L265.144 144.586C263.974 145.092 262.872 145.432 261.759 145.717C260.65 146.004 259.548 146.246 258.447 146.445C256.236 146.85 254.056 147.148 251.804 147.303L251.478 142.83Z" fill="#FBBE4B"/>
<path fill-rule="evenodd" clip-rule="evenodd" d="M251.799 147.294C253.922 147.178 256.042 147.199 258.165 147.269C260.288 147.342 262.411 147.457 264.534 147.636C266.657 147.808 268.777 148.026 270.9 148.296C273.023 148.565 275.146 148.878 277.269 149.322V149.706C275.146 150.149 273.023 150.462 270.9 150.732C268.777 150.999 266.657 151.219 264.534 151.393C262.411 151.569 260.288 151.685 258.165 151.756C256.042 151.829 253.922 151.85 251.799 151.733V147.294Z" fill="#FBBE4B"/>
<path fill-rule="evenodd" clip-rule="evenodd" d="M247.228 135.333C249.095 134.389 251.034 133.441 252.906 132.476C253.841 131.989 254.775 131.502 255.671 130.991C256.559 130.476 257.453 129.954 258.165 129.405L258.414 129.205L258.625 129.02C258.668 128.974 258.75 128.907 258.77 128.882C258.785 128.867 258.801 128.853 258.821 128.84L258.917 128.687C259.179 128.272 259.441 127.798 259.744 127.302C260.341 126.308 261.208 125.248 262.219 124.56C263.223 123.845 264.295 123.373 265.365 122.997C266.437 122.622 267.525 122.37 268.617 122.163L268.754 122.525C267.817 123.092 266.868 123.612 266.005 124.223C265.138 124.82 264.332 125.462 263.706 126.17C263.542 126.341 263.418 126.535 263.272 126.711C263.15 126.902 263.013 127.08 262.914 127.283C262.689 127.667 262.52 128.087 262.344 128.549C262.164 129.008 261.994 129.512 261.775 130.051L261.693 130.258L261.534 130.562C261.421 130.768 261.317 130.9 261.204 131.072C261.096 131.213 260.987 131.351 260.875 131.484L260.542 131.848C259.66 132.753 258.776 133.479 257.858 134.16C256.946 134.836 256.025 135.472 255.084 136.069C253.2 137.27 251.304 138.36 249.281 139.344L247.228 135.333Z" fill="#FBBE4B"/>
<path fill-rule="evenodd" clip-rule="evenodd" d="M249.275 139.337C251.19 138.437 253.158 137.664 255.146 136.936C257.136 136.209 259.141 135.522 261.174 134.893C263.201 134.258 265.248 133.668 267.316 133.125C269.38 132.579 271.463 132.074 273.6 131.692L273.749 132.048C271.962 133.25 270.125 134.333 268.268 135.374C266.414 136.416 264.539 137.411 262.645 138.365C260.753 139.322 258.838 140.22 256.905 141.082C254.974 141.94 253.019 142.752 251.014 143.438L249.275 139.337Z" fill="#FBBE4B"/>
<path fill-rule="evenodd" clip-rule="evenodd" d="M240.365 129.996C241.719 128.425 243.139 126.826 244.491 125.234C245.164 124.434 245.836 123.635 246.464 122.829C247.082 122.02 247.704 121.204 248.146 120.431L248.297 120.153L248.42 119.903C248.442 119.846 248.491 119.752 248.5 119.722C248.508 119.703 248.518 119.683 248.53 119.664L248.559 119.487C248.639 119.005 248.694 118.47 248.782 117.897C248.943 116.758 249.33 115.453 249.993 114.438C250.639 113.404 251.447 112.567 252.286 111.82C253.129 111.071 254.037 110.433 254.965 109.835L255.235 110.116C254.589 110.991 253.916 111.826 253.36 112.715C252.791 113.588 252.298 114.484 251.997 115.371C251.913 115.59 251.875 115.818 251.809 116.034C251.772 116.257 251.715 116.469 251.701 116.695C251.644 117.136 251.654 117.585 251.672 118.078C251.686 118.569 251.727 119.099 251.736 119.68L251.738 119.901L251.711 120.241C251.689 120.474 251.644 120.633 251.607 120.836C251.562 121.006 251.515 121.176 251.463 121.34L251.3 121.801C250.838 122.966 250.306 123.967 249.725 124.938C249.148 125.905 248.545 126.838 247.909 127.739C246.642 129.555 245.315 131.269 243.832 132.933L240.365 129.996Z" fill="#FBBE4B"/>
<path fill-rule="evenodd" clip-rule="evenodd" d="M243.824 132.93C245.241 131.383 246.757 129.932 248.309 128.516C249.862 127.102 251.445 125.717 253.077 124.378C254.701 123.034 256.362 121.723 258.056 120.447C259.752 119.172 261.48 117.927 263.302 116.774L263.579 117.048C262.4 118.827 261.126 120.514 259.819 122.171C258.514 123.825 257.172 125.446 255.796 127.034C254.423 128.625 253.006 130.173 251.559 131.69C250.109 133.206 248.624 134.685 247.039 136.07L243.824 132.93Z" fill="#FBBE4B"/>
<path fill-rule="evenodd" clip-rule="evenodd" d="M231.932 127.63C232.568 125.673 233.253 123.663 233.879 121.689C234.186 120.697 234.496 119.71 234.758 118.727C235.014 117.751 235.268 116.765 235.374 115.884L235.403 115.573L235.421 115.296C235.417 115.232 235.427 115.129 235.423 115.095C235.423 115.076 235.425 115.055 235.429 115.034L235.386 114.858C235.27 114.382 235.112 113.866 234.967 113.306C234.67 112.192 234.515 110.843 234.732 109.659C234.924 108.461 235.341 107.387 235.824 106.382C236.311 105.376 236.9 104.446 237.522 103.546L237.88 103.704C237.628 104.755 237.332 105.778 237.166 106.808C236.984 107.826 236.881 108.839 236.949 109.771C236.957 110.004 237.012 110.228 237.035 110.454C237.088 110.673 237.119 110.891 237.194 111.105C237.315 111.531 237.499 111.944 237.71 112.393C237.916 112.842 238.16 113.316 238.395 113.849L238.487 114.054L238.592 114.376C238.663 114.6 238.686 114.764 238.729 114.965C238.755 115.139 238.778 115.313 238.794 115.485L238.823 115.97C238.855 117.222 238.755 118.343 238.598 119.457C238.446 120.568 238.254 121.655 238.019 122.725C237.557 124.876 237.006 126.955 236.288 129.048L231.932 127.63Z" fill="#FBBE4B"/>
<path fill-rule="evenodd" clip-rule="evenodd" d="M236.278 129.048C236.981 127.09 237.812 125.183 238.693 123.295C239.573 121.407 240.495 119.534 241.475 117.688C242.449 115.839 243.47 114.008 244.537 112.197C245.603 110.383 246.712 108.589 247.943 106.842L248.307 106.991C247.914 109.074 247.399 111.109 246.84 113.127C246.282 115.147 245.677 117.146 245.028 119.127C244.384 121.109 243.682 123.069 242.936 125.011C242.193 126.954 241.4 128.876 240.477 130.747L236.278 129.048Z" fill="#FBBE4B"/>
<path fill-rule="evenodd" clip-rule="evenodd" d="M223.215 128.595C223.037 126.55 222.882 124.439 222.685 122.379C222.581 121.349 222.479 120.319 222.338 119.316C222.192 118.318 222.039 117.311 221.793 116.457L221.699 116.159L221.605 115.895C221.577 115.84 221.544 115.741 221.528 115.71C221.521 115.693 221.513 115.672 221.507 115.651L221.399 115.506C221.108 115.108 220.76 114.692 220.405 114.227C219.695 113.31 219.024 112.121 218.76 110.946C218.468 109.767 218.433 108.619 218.486 107.511C218.541 106.399 218.721 105.319 218.942 104.255L219.335 104.27C219.513 105.334 219.642 106.389 219.891 107.402C220.122 108.411 220.423 109.385 220.852 110.22C220.951 110.434 221.09 110.621 221.198 110.82C221.335 111.002 221.448 111.193 221.601 111.361C221.879 111.713 222.211 112.024 222.583 112.36C222.947 112.697 223.36 113.044 223.786 113.448L223.949 113.602L224.176 113.862C224.328 114.042 224.412 114.185 224.532 114.353C224.624 114.504 224.714 114.659 224.796 114.81L225.013 115.248C225.532 116.392 225.88 117.466 226.171 118.553C226.465 119.637 226.713 120.713 226.917 121.788C227.332 123.948 227.637 126.076 227.795 128.278L223.215 128.595Z" fill="#FBBE4B"/>
<path fill-rule="evenodd" clip-rule="evenodd" d="M227.786 128.281C227.667 126.21 227.688 124.137 227.761 122.063C227.835 119.99 227.953 117.917 228.137 115.844C228.313 113.772 228.536 111.699 228.812 109.626C229.087 107.553 229.408 105.479 229.862 103.406H230.255C230.709 105.479 231.03 107.553 231.306 109.626C231.58 111.699 231.807 113.772 231.983 115.844C232.165 117.917 232.282 119.99 232.355 122.063C232.429 124.137 232.451 126.21 232.331 128.281H227.786Z" fill="#FBBE4B"/>
<path fill-rule="evenodd" clip-rule="evenodd" d="M215.54 132.745C214.572 130.922 213.603 129.028 212.615 127.2C212.114 126.286 211.617 125.377 211.093 124.5C210.567 123.632 210.032 122.759 209.469 122.063L209.265 121.823L209.076 121.614C209.029 121.572 208.958 121.494 208.933 121.473C208.917 121.458 208.903 121.442 208.892 121.425L208.733 121.33C208.309 121.074 207.823 120.817 207.315 120.521C206.299 119.94 205.213 119.092 204.507 118.104C203.777 117.126 203.294 116.077 202.907 115.033C202.523 113.984 202.267 112.922 202.054 111.856L202.423 111.722C203.005 112.639 203.539 113.564 204.165 114.407C204.773 115.253 205.433 116.042 206.157 116.654C206.333 116.812 206.532 116.935 206.71 117.076C206.908 117.195 207.09 117.328 207.295 117.426C207.69 117.645 208.119 117.81 208.594 117.982C209.062 118.158 209.58 118.324 210.132 118.538L210.343 118.618L210.653 118.775C210.866 118.884 211.001 118.985 211.175 119.096C211.32 119.201 211.463 119.31 211.598 119.419L211.971 119.742C212.897 120.605 213.64 121.469 214.337 122.363C215.031 123.254 215.683 124.154 216.293 125.073C217.522 126.913 218.637 128.765 219.647 130.74L215.54 132.745Z" fill="#FBBE4B"/>
<path fill-rule="evenodd" clip-rule="evenodd" d="M219.639 130.747C218.718 128.876 217.925 126.954 217.18 125.011C216.436 123.067 215.732 121.109 215.088 119.125C214.439 117.144 213.834 115.145 213.279 113.127C212.719 111.109 212.205 109.074 211.811 106.99L212.175 106.843C213.406 108.589 214.515 110.383 215.581 112.197C216.648 114.008 217.667 115.839 218.643 117.688C219.624 119.534 220.545 121.407 221.426 123.295C222.304 125.181 223.138 127.088 223.838 129.048L219.639 130.747Z" fill="#FBBE4B"/>
<path fill-rule="evenodd" clip-rule="evenodd" d="M210.074 139.449C208.466 138.124 206.829 136.739 205.199 135.419C204.379 134.761 203.561 134.106 202.735 133.491C201.91 132.889 201.072 132.281 200.28 131.847L199.998 131.702L199.74 131.582C199.681 131.561 199.585 131.513 199.554 131.503C199.535 131.496 199.515 131.486 199.495 131.475L199.314 131.446C198.82 131.368 198.273 131.312 197.686 131.228C196.52 131.072 195.183 130.693 194.146 130.045C193.086 129.413 192.229 128.626 191.464 127.806C190.699 126.98 190.044 126.094 189.431 125.188L189.719 124.926C190.615 125.555 191.47 126.214 192.38 126.757C193.274 127.311 194.191 127.793 195.099 128.087C195.324 128.169 195.557 128.207 195.778 128.272C196.007 128.308 196.226 128.362 196.455 128.377C196.907 128.433 197.367 128.423 197.872 128.406C198.374 128.391 198.916 128.352 199.513 128.343L199.738 128.341L200.086 128.368C200.325 128.389 200.489 128.433 200.695 128.469C200.869 128.511 201.043 128.559 201.211 128.608L201.683 128.769C202.876 129.22 203.902 129.738 204.895 130.305C205.885 130.869 206.84 131.458 207.764 132.08C209.622 133.319 211.377 134.612 213.084 136.061L210.074 139.449Z" fill="#FBBE4B"/>
<path fill-rule="evenodd" clip-rule="evenodd" d="M213.079 136.07C211.494 134.685 210.009 133.206 208.559 131.69C207.112 130.173 205.693 128.625 204.321 127.034C202.946 125.446 201.604 123.825 200.297 122.171C198.992 120.514 197.716 118.827 196.536 117.048L196.816 116.775C198.638 117.927 200.365 119.173 202.062 120.447C203.756 121.724 205.415 123.034 207.041 124.378C208.671 125.717 210.256 127.103 211.809 128.517C213.361 129.932 214.877 131.383 216.293 132.931L213.079 136.07Z" fill="#FBBE4B"/>
<path fill-rule="evenodd" clip-rule="evenodd" d="M207.652 147.683C205.648 147.062 203.592 146.394 201.569 145.782C200.553 145.482 199.542 145.18 198.536 144.924C197.538 144.674 196.527 144.425 195.627 144.322L195.306 144.294L195.022 144.276C194.958 144.28 194.852 144.273 194.817 144.274C194.797 144.274 194.776 144.273 194.754 144.271L194.574 144.311C194.087 144.423 193.559 144.578 192.986 144.72C191.845 145.01 190.464 145.161 189.251 144.949C188.024 144.762 186.924 144.355 185.895 143.883C184.866 143.407 183.913 142.832 182.992 142.224L183.156 141.874C184.23 142.121 185.277 142.409 186.331 142.572C187.374 142.75 188.411 142.853 189.366 142.784C189.605 142.776 189.836 142.723 190.065 142.702C190.29 142.648 190.513 142.618 190.732 142.545C191.17 142.429 191.591 142.247 192.05 142.041C192.51 141.842 192.995 141.601 193.541 141.372L193.751 141.284L194.081 141.179C194.31 141.11 194.478 141.089 194.684 141.045C194.862 141.02 195.04 140.997 195.216 140.982L195.713 140.953C196.995 140.923 198.145 141.02 199.284 141.173C200.42 141.324 201.534 141.511 202.629 141.739C204.832 142.19 206.961 142.729 209.103 143.43L207.652 147.683Z" fill="#FBBE4B"/>
<path fill-rule="evenodd" clip-rule="evenodd" d="M209.104 143.439C207.098 142.753 205.146 141.941 203.213 141.081C201.28 140.221 199.364 139.321 197.472 138.364C195.578 137.412 193.704 136.417 191.849 135.373C189.993 134.332 188.155 133.25 186.367 132.047L186.52 131.691C188.652 132.075 190.736 132.58 192.802 133.124C194.87 133.669 196.917 134.259 198.946 134.894C200.974 135.522 202.982 136.208 204.97 136.936C206.959 137.663 208.928 138.436 210.843 139.338L209.104 143.439Z" fill="#FBBE4B"/>
<path fill-rule="evenodd" clip-rule="evenodd" d="M208.641 156.197C206.545 156.373 204.383 156.522 202.276 156.715C201.219 156.816 200.167 156.916 199.138 157.053C198.116 157.197 197.085 157.346 196.213 157.586L195.906 157.678L195.638 157.772C195.579 157.797 195.477 157.829 195.448 157.844C195.43 157.852 195.409 157.86 195.387 157.865L195.236 157.97C194.831 158.255 194.405 158.595 193.929 158.941C192.99 159.635 191.771 160.29 190.57 160.548C189.361 160.833 188.187 160.867 187.05 160.816C185.912 160.762 184.808 160.588 183.718 160.37L183.734 159.986C184.822 159.813 185.904 159.686 186.939 159.444C187.974 159.218 188.972 158.924 189.827 158.506C190.046 158.408 190.236 158.274 190.439 158.167C190.627 158.035 190.823 157.923 190.995 157.774C191.353 157.502 191.672 157.177 192.016 156.816C192.362 156.459 192.716 156.056 193.131 155.639L193.288 155.481L193.554 155.259C193.74 155.11 193.884 155.028 194.059 154.913C194.213 154.821 194.37 154.734 194.524 154.653L194.974 154.441C196.144 153.935 197.246 153.595 198.359 153.31C199.468 153.023 200.568 152.781 201.671 152.582C203.882 152.177 206.062 151.879 208.314 151.726L208.641 156.197Z" fill="#FBBE4B"/>
<path fill-rule="evenodd" clip-rule="evenodd" d="M208.319 151.734C206.198 151.85 204.075 151.829 201.952 151.757C199.829 151.686 197.706 151.569 195.584 151.392C193.463 151.22 191.34 151 189.217 150.732C187.094 150.463 184.971 150.15 182.849 149.706V149.32C184.971 148.877 187.094 148.566 189.217 148.296C191.34 148.027 193.463 147.807 195.584 147.635C197.706 147.457 199.829 147.343 201.952 147.27C204.075 147.199 206.198 147.178 208.319 147.295V151.734Z" fill="#FBBE4B"/>
<path fill-rule="evenodd" clip-rule="evenodd" d="M212.89 163.694C211.021 164.638 209.084 165.586 207.212 166.551C206.277 167.038 205.344 167.525 204.448 168.035C203.559 168.551 202.665 169.073 201.953 169.623L201.704 169.822L201.493 170.007C201.45 170.053 201.368 170.122 201.346 170.147C201.333 170.16 201.317 170.175 201.298 170.187L201.202 170.342C200.938 170.756 200.677 171.23 200.374 171.727C199.777 172.719 198.909 173.779 197.899 174.467C196.895 175.182 195.823 175.654 194.753 176.03C193.681 176.405 192.591 176.657 191.499 176.863L191.362 176.504C192.301 175.935 193.25 175.415 194.113 174.804C194.98 174.207 195.786 173.565 196.412 172.858C196.576 172.686 196.7 172.491 196.846 172.316C196.968 172.125 197.103 171.947 197.204 171.744C197.429 171.36 197.598 170.94 197.774 170.477C197.954 170.021 198.124 169.514 198.341 168.975L198.425 168.769L198.584 168.467C198.697 168.259 198.799 168.127 198.913 167.955C199.022 167.814 199.132 167.676 199.243 167.544L199.576 167.179C200.458 166.274 201.343 165.547 202.258 164.869C203.172 164.191 204.093 163.554 205.034 162.958C206.919 161.756 208.814 160.667 210.838 159.683L212.89 163.694Z" fill="#FBBE4B"/>
<path fill-rule="evenodd" clip-rule="evenodd" d="M210.844 159.689C208.928 160.589 206.96 161.363 204.97 162.091C202.98 162.817 200.975 163.505 198.944 164.134C196.917 164.768 194.869 165.359 192.802 165.903C190.736 166.448 188.653 166.953 186.518 167.335L186.367 166.979C188.156 165.777 189.993 164.696 191.85 163.653C193.704 162.611 195.579 161.616 197.473 160.662C199.365 159.705 201.28 158.807 203.213 157.945C205.144 157.087 207.097 156.275 209.104 155.589L210.844 159.689Z" fill="#FBBE4B"/>
<path fill-rule="evenodd" clip-rule="evenodd" d="M219.753 169.031C218.399 170.602 216.979 172.201 215.627 173.793C214.954 174.593 214.283 175.392 213.655 176.198C213.036 177.007 212.414 177.823 211.97 178.597L211.821 178.874L211.698 179.124C211.676 179.183 211.628 179.275 211.618 179.307C211.61 179.325 211.6 179.344 211.588 179.363L211.559 179.54C211.479 180.022 211.422 180.559 211.336 181.13C211.176 182.269 210.788 183.574 210.125 184.589C209.477 185.623 208.671 186.46 207.832 187.207C206.987 187.956 206.079 188.594 205.151 189.192L204.883 188.911C205.527 188.036 206.202 187.201 206.758 186.312C207.325 185.439 207.818 184.543 208.121 183.656C208.204 183.437 208.243 183.209 208.309 182.993C208.346 182.77 208.401 182.558 208.417 182.332C208.474 181.893 208.464 181.442 208.446 180.949C208.431 180.458 208.391 179.928 208.382 179.347L208.38 179.126L208.407 178.786C208.429 178.553 208.474 178.394 208.511 178.193C208.554 178.021 208.603 177.853 208.654 177.687L208.818 177.228C209.28 176.061 209.812 175.06 210.391 174.089C210.97 173.122 211.571 172.19 212.209 171.288C213.476 169.474 214.803 167.758 216.284 166.094L219.753 169.031Z" fill="#FBBE4B"/>
<path fill-rule="evenodd" clip-rule="evenodd" d="M216.294 166.097C214.877 167.644 213.361 169.095 211.809 170.511C210.256 171.925 208.671 173.31 207.041 174.65C205.415 175.993 203.756 177.304 202.062 178.58C200.366 179.855 198.638 181.1 196.817 182.253L196.537 181.979C197.717 180.2 198.992 178.513 200.297 176.858C201.604 175.202 202.946 173.581 204.322 171.993C205.693 170.402 207.112 168.854 208.56 167.337C210.009 165.821 211.494 164.343 213.079 162.957L216.294 166.097Z" fill="#FBBE4B"/>
<path fill-rule="evenodd" clip-rule="evenodd" d="M228.185 171.397C227.549 173.354 226.864 175.364 226.238 177.338C225.931 178.33 225.622 179.319 225.359 180.3C225.103 181.276 224.849 182.262 224.743 183.143L224.714 183.454L224.698 183.731C224.7 183.795 224.692 183.898 224.694 183.932C224.694 183.951 224.694 183.972 224.69 183.995L224.733 184.169C224.847 184.645 225.005 185.161 225.15 185.721C225.447 186.835 225.602 188.184 225.385 189.368C225.193 190.567 224.776 191.64 224.293 192.646C223.806 193.653 223.217 194.581 222.597 195.481L222.237 195.323C222.489 194.272 222.785 193.249 222.951 192.221C223.133 191.201 223.238 190.188 223.168 189.258C223.16 189.023 223.105 188.799 223.084 188.574C223.029 188.354 222.998 188.136 222.923 187.922C222.804 187.496 222.618 187.083 222.407 186.634C222.203 186.185 221.957 185.711 221.722 185.178L221.632 184.974L221.525 184.651C221.454 184.427 221.433 184.263 221.388 184.062C221.362 183.89 221.339 183.714 221.323 183.542L221.294 183.057C221.262 181.807 221.362 180.684 221.519 179.57C221.673 178.46 221.865 177.372 222.098 176.302C222.56 174.151 223.111 172.074 223.829 169.979L228.185 171.397Z" fill="#FBBE4B"/>
<path fill-rule="evenodd" clip-rule="evenodd" d="M223.839 169.979C223.137 171.937 222.305 173.844 221.425 175.734C220.544 177.622 219.623 179.493 218.642 181.339C217.668 183.188 216.649 185.019 215.581 186.83C214.514 188.644 213.407 190.44 212.174 192.185L211.812 192.036C212.204 189.953 212.72 187.918 213.278 185.9C213.835 183.88 214.44 181.883 215.089 179.902C215.733 177.918 216.436 175.958 217.181 174.016C217.926 172.073 218.717 170.151 219.64 168.28L223.839 169.979Z" fill="#FBBE4B"/>
<path fill-rule="evenodd" clip-rule="evenodd" d="M249.267 149.514C249.267 159.874 240.666 168.273 230.06 168.273C219.45 168.273 210.851 159.874 210.851 149.514C210.851 139.153 219.45 130.753 230.06 130.753C240.666 130.753 249.267 139.153 249.267 149.514Z" fill="#FBBE4B"/>
<path fill-rule="evenodd" clip-rule="evenodd" d="M226.65 151.759C226.606 152.244 226.718 152.804 227.058 153.083C227.393 153.37 227.925 153.394 228.438 153.293L228.802 153.61C228.784 153.692 228.819 153.87 228.898 153.991C228.978 154.121 229.117 154.222 229.271 154.3C229.582 154.466 229.981 154.489 230.361 154.497L230.383 154.499C230.754 154.503 231.185 154.375 231.392 154.119C231.615 153.878 231.641 153.564 231.643 153.219L231.645 152.58L232.288 152.833C232.672 152.984 233.149 153.077 233.366 152.888C233.638 152.724 233.803 152.225 233.9 151.724H234.341C234.431 152.265 234.454 152.93 233.9 153.507C233.605 153.777 233.188 153.864 232.848 153.851C232.494 153.836 232.196 153.767 231.881 153.603L232.529 153.219C232.529 153.714 232.288 154.314 231.805 154.608C231.328 154.898 230.838 154.956 230.343 154.925L230.361 154.927C229.938 154.923 229.506 154.871 229.08 154.701C228.661 154.529 228.234 154.174 228.176 153.584L228.538 153.899C227.955 153.979 227.213 153.95 226.693 153.463C226.19 152.957 226.135 152.286 226.215 151.69L226.65 151.759Z" fill="#672B0F"/>
<path fill-rule="evenodd" clip-rule="evenodd" d="M217.539 140.655C219.336 139.826 221.376 139.533 223.36 139.722C224.356 139.81 225.332 140.072 226.25 140.45C227.187 140.812 227.966 141.454 228.682 142.109L228.596 142.197C227.107 140.966 225.254 140.231 223.327 140.108C221.4 139.998 219.474 140.298 217.584 140.768L217.539 140.655Z" fill="#672B0F"/>
<path fill-rule="evenodd" clip-rule="evenodd" d="M228.124 145.536C227.525 144.66 226.646 144.138 225.752 143.849C224.846 143.572 223.89 143.466 222.935 143.572C221.982 143.661 221.035 143.889 220.104 144.199C219.176 144.519 218.257 144.876 217.343 145.277L217.288 145.127C218.182 144.657 219.073 144.164 220.016 143.833C220.955 143.489 221.917 143.226 222.902 143.104C223.884 142.98 224.901 143.008 225.874 143.339C226.828 143.673 227.783 144.349 228.245 145.458L228.124 145.536Z" fill="#672B0F"/>
<path fill-rule="evenodd" clip-rule="evenodd" d="M219.892 145.326C220.519 146.265 221.413 147.013 222.377 147.214C223.34 147.48 224.359 147.099 225.212 146.438L225.402 146.787C224.527 147.523 223.402 148.015 222.293 147.756C221.188 147.485 220.272 146.629 219.613 145.57L219.892 145.326Z" fill="#672B0F"/>
<path fill-rule="evenodd" clip-rule="evenodd" d="M224.709 144.878C224.709 145.745 223.989 146.449 223.101 146.449C222.213 146.449 221.493 145.745 221.493 144.878C221.493 144.01 222.213 143.307 223.101 143.307C223.989 143.307 224.709 144.01 224.709 144.878Z" fill="#672B0F"/>
<path fill-rule="evenodd" clip-rule="evenodd" d="M242.987 140.767C241.099 140.297 239.171 139.999 237.246 140.11C235.319 140.232 233.466 140.966 231.975 142.198L231.891 142.11C232.607 141.455 233.386 140.811 234.323 140.45C235.241 140.071 236.217 139.81 237.211 139.724C239.197 139.533 241.236 139.825 243.034 140.654L242.987 140.767Z" fill="#672B0F"/>
<path fill-rule="evenodd" clip-rule="evenodd" d="M232.326 145.458C232.79 144.347 233.744 143.671 234.699 143.34C235.672 143.008 236.689 142.978 237.669 143.105C238.655 143.227 239.618 143.49 240.555 143.833C241.498 144.162 242.39 144.657 243.282 145.125L243.23 145.277C242.316 144.873 241.394 144.519 240.467 144.197C239.538 143.889 238.591 143.661 237.636 143.572C236.683 143.466 235.724 143.57 234.82 143.847C233.926 144.138 233.046 144.659 232.447 145.536L232.326 145.458Z" fill="#672B0F"/>
<path fill-rule="evenodd" clip-rule="evenodd" d="M240.959 145.569C240.3 146.628 239.386 147.485 238.279 147.756C237.17 148.012 236.045 147.521 235.17 146.788L235.36 146.436C236.213 147.097 237.232 147.478 238.195 147.215C239.159 147.014 240.054 146.264 240.68 145.325L240.959 145.569Z" fill="#672B0F"/>
<path fill-rule="evenodd" clip-rule="evenodd" d="M235.864 144.878C235.864 145.745 236.584 146.449 237.472 146.449C238.36 146.449 239.08 145.745 239.08 144.878C239.08 144.01 238.36 143.307 237.472 143.307C236.584 143.307 235.864 144.01 235.864 144.878Z" fill="#672B0F"/>
<path fill-rule="evenodd" clip-rule="evenodd" d="M227.147 160.11C227.717 160.386 228.263 160.659 228.803 160.838C229.344 161.013 229.869 161.137 230.385 161.144C231.428 161.203 232.44 160.741 233.58 160.108L233.839 160.386C233.506 161.009 233.046 161.576 232.434 161.971C231.851 162.418 231.092 162.608 230.36 162.608C229.622 162.595 228.9 162.363 228.309 161.957C227.719 161.55 227.212 161.051 226.883 160.381L227.147 160.11Z" fill="#672B0F"/>
<path fill-rule="evenodd" clip-rule="evenodd" d="M224.104 159.69C225.118 158.94 226.194 158.365 227.315 157.883C227.843 157.67 228.532 157.38 229.15 157.763C229.747 158.093 230.16 158.73 230.406 159.423L230.318 159.49C229.939 158.943 229.485 158.485 228.998 158.255C228.514 158.008 227.994 158.218 227.429 158.378C226.321 158.753 225.249 159.335 224.148 159.81L224.104 159.69Z" fill="#672B0F"/>
<path fill-rule="evenodd" clip-rule="evenodd" d="M236.183 159.812C235.081 159.337 234.011 158.754 232.904 158.379C232.336 158.219 231.816 158.009 231.333 158.257C230.845 158.487 230.391 158.944 230.014 159.492L229.924 159.424C230.172 158.732 230.583 158.094 231.18 157.762C231.798 157.379 232.489 157.672 233.017 157.884C234.136 158.367 235.212 158.942 236.226 159.692L236.183 159.812Z" fill="#672B0F"/>
</g>
<path d="M302.93 6.71604C380.323 6.71604 443.281 69.6474 443.281 147.008V293.271H147.07C69.6767 293.271 6.71887 230.34 6.71887 152.979V6.71604H302.917M302.93 0H0V152.992C0 234.178 65.85 300 147.07 300H450V147.008C450 65.8223 384.15 0 302.93 0Z" fill="#828282"/>
</g>
<defs>
<clipPath id="clip0_1265_9246">
<rect width="450" height="300" fill="white"/>
</clipPath>
</defs>
</svg>
