<svg width="450" height="300" viewBox="0 0 450 300" fill="none" xmlns="http://www.w3.org/2000/svg">
<g clip-path="url(#clip0_1265_9599)">
<mask id="mask0_1265_9599" style="mask-type:alpha" maskUnits="userSpaceOnUse" x="0" y="0" width="450" height="300">
<path d="M450 147.008V300H147.07C65.85 300 0 234.178 0 152.992V0H302.93C384.15 0 450 65.8223 450 147.008Z" fill="#1D1D1B"/>
</mask>
<g mask="url(#mask0_1265_9599)">
<g clip-path="url(#clip1_1265_9599)">
<path d="M0 0H450V300H0V0Z" fill="#F93939"/>
<path d="M0 0H450V105H0V0Z" fill="#FFDA2C"/>
<path d="M0 105H450V195H0V105Z" fill="#1A47B8"/>
</g>
</g>
<path d="M302.93 6.71604C380.323 6.71604 443.281 69.6474 443.281 147.008V293.271H147.07C69.6767 293.271 6.71887 230.34 6.71887 152.979V6.71604H302.917M302.93 0H0V152.992C0 234.178 65.85 300 147.07 300H450V147.008C450 65.8223 384.15 0 302.93 0Z" fill="white"/>
</g>
<defs>
<clipPath id="clip0_1265_9599">
<rect width="450" height="300" fill="white"/>
</clipPath>
<clipPath id="clip1_1265_9599">
<rect width="450" height="300" fill="white"/>
</clipPath>
</defs>
</svg>
